<mxfile host="app.diagrams.net" modified="2021-06-14T15:16:18.725Z" agent="5.0 (Windows NT 10.0; Win64; x64) AppleWebKit/537.36 (KHTML, like Gecko) Chrome/91.0.4472.77 Safari/537.36" etag="KuxhKlitohnXs4U-tkXi" version="14.7.7" type="github" pages="8">
  <diagram id="kgpKYQtTHZ0yAKxKKP6v" name="Page-1">
    <mxGraphModel dx="1952" dy="557" grid="1" gridSize="10" guides="1" tooltips="1" connect="1" arrows="1" fold="1" page="1" pageScale="1" pageWidth="850" pageHeight="1100" math="0" shadow="0">
      <root>
        <mxCell id="0" />
        <mxCell id="1" parent="0" />
        <mxCell id="S1U6I2X5g81D62Wpko52-2" value="Actor" style="shape=umlActor;verticalLabelPosition=bottom;verticalAlign=top;html=1;outlineConnect=0;" vertex="1" parent="1">
          <mxGeometry x="80" y="40" width="30" height="60" as="geometry" />
        </mxCell>
        <mxCell id="S1U6I2X5g81D62Wpko52-3" value="" style="endArrow=none;dashed=1;html=1;" edge="1" parent="1" target="S1U6I2X5g81D62Wpko52-2">
          <mxGeometry width="50" height="50" relative="1" as="geometry">
            <mxPoint x="95" y="820" as="sourcePoint" />
            <mxPoint x="450" y="290" as="targetPoint" />
          </mxGeometry>
        </mxCell>
        <mxCell id="S1U6I2X5g81D62Wpko52-6" value=":Quản lý,nhân viên&lt;br style=&quot;font-size: 12px;&quot;&gt;" style="edgeLabel;html=1;align=center;verticalAlign=middle;resizable=0;points=[];fontStyle=1;fontSize=12;" vertex="1" connectable="0" parent="S1U6I2X5g81D62Wpko52-3">
          <mxGeometry x="0.922" y="3" relative="1" as="geometry">
            <mxPoint x="3" y="-18" as="offset" />
          </mxGeometry>
        </mxCell>
        <mxCell id="S1U6I2X5g81D62Wpko52-7" value="" style="shape=umlBoundary;whiteSpace=wrap;html=1;fontSize=12;" vertex="1" parent="1">
          <mxGeometry x="230" y="40" width="70" height="50" as="geometry" />
        </mxCell>
        <mxCell id="S1U6I2X5g81D62Wpko52-8" value=":GD_QLSanPham" style="text;html=1;align=center;verticalAlign=middle;resizable=0;points=[];autosize=1;strokeColor=none;fontSize=12;" vertex="1" parent="1">
          <mxGeometry x="215" y="100" width="110" height="20" as="geometry" />
        </mxCell>
        <mxCell id="S1U6I2X5g81D62Wpko52-9" value="" style="shape=umlBoundary;whiteSpace=wrap;html=1;fontSize=12;" vertex="1" parent="1">
          <mxGeometry x="230" y="40" width="70" height="50" as="geometry" />
        </mxCell>
        <mxCell id="S1U6I2X5g81D62Wpko52-10" value="" style="shape=umlBoundary;whiteSpace=wrap;html=1;fontSize=12;" vertex="1" parent="1">
          <mxGeometry x="400" y="40" width="70" height="50" as="geometry" />
        </mxCell>
        <mxCell id="S1U6I2X5g81D62Wpko52-11" value=":GD_Sửa SP" style="text;html=1;align=center;verticalAlign=middle;resizable=0;points=[];autosize=1;strokeColor=none;fontSize=12;" vertex="1" parent="1">
          <mxGeometry x="395" y="100" width="90" height="20" as="geometry" />
        </mxCell>
        <mxCell id="S1U6I2X5g81D62Wpko52-12" value="" style="ellipse;shape=umlEntity;whiteSpace=wrap;html=1;fontSize=12;" vertex="1" parent="1">
          <mxGeometry x="720" y="40" width="60" height="50" as="geometry" />
        </mxCell>
        <mxCell id="S1U6I2X5g81D62Wpko52-13" value="" style="ellipse;shape=umlControl;whiteSpace=wrap;html=1;fontSize=12;" vertex="1" parent="1">
          <mxGeometry x="560" y="35" width="60" height="60" as="geometry" />
        </mxCell>
        <mxCell id="S1U6I2X5g81D62Wpko52-14" value=":Sửa SP" style="text;html=1;align=center;verticalAlign=middle;resizable=0;points=[];autosize=1;strokeColor=none;fontSize=12;" vertex="1" parent="1">
          <mxGeometry x="565" y="100" width="60" height="20" as="geometry" />
        </mxCell>
        <mxCell id="S1U6I2X5g81D62Wpko52-15" value=":SanPham" style="text;html=1;align=center;verticalAlign=middle;resizable=0;points=[];autosize=1;strokeColor=none;fontSize=12;" vertex="1" parent="1">
          <mxGeometry x="720" y="100" width="70" height="20" as="geometry" />
        </mxCell>
        <mxCell id="S1U6I2X5g81D62Wpko52-16" value="" style="endArrow=none;dashed=1;html=1;fontSize=12;" edge="1" parent="1" target="S1U6I2X5g81D62Wpko52-8">
          <mxGeometry width="50" height="50" relative="1" as="geometry">
            <mxPoint x="270" y="820" as="sourcePoint" />
            <mxPoint x="450" y="290" as="targetPoint" />
          </mxGeometry>
        </mxCell>
        <mxCell id="S1U6I2X5g81D62Wpko52-17" value="" style="endArrow=none;dashed=1;html=1;fontSize=12;entryX=0.478;entryY=1.1;entryDx=0;entryDy=0;entryPerimeter=0;" edge="1" parent="1" target="S1U6I2X5g81D62Wpko52-11">
          <mxGeometry width="50" height="50" relative="1" as="geometry">
            <mxPoint x="438" y="820" as="sourcePoint" />
            <mxPoint x="450" y="290" as="targetPoint" />
          </mxGeometry>
        </mxCell>
        <mxCell id="S1U6I2X5g81D62Wpko52-18" value="" style="endArrow=none;dashed=1;html=1;fontSize=12;entryX=0.471;entryY=1.15;entryDx=0;entryDy=0;entryPerimeter=0;" edge="1" parent="1" target="S1U6I2X5g81D62Wpko52-14">
          <mxGeometry width="50" height="50" relative="1" as="geometry">
            <mxPoint x="593" y="820" as="sourcePoint" />
            <mxPoint x="450" y="290" as="targetPoint" />
          </mxGeometry>
        </mxCell>
        <mxCell id="S1U6I2X5g81D62Wpko52-19" value="" style="endArrow=none;dashed=1;html=1;fontSize=12;entryX=0.471;entryY=1;entryDx=0;entryDy=0;entryPerimeter=0;" edge="1" parent="1" target="S1U6I2X5g81D62Wpko52-15">
          <mxGeometry width="50" height="50" relative="1" as="geometry">
            <mxPoint x="753" y="820" as="sourcePoint" />
            <mxPoint x="450" y="290" as="targetPoint" />
          </mxGeometry>
        </mxCell>
        <mxCell id="S1U6I2X5g81D62Wpko52-21" value="" style="html=1;points=[];perimeter=orthogonalPerimeter;fontSize=12;" vertex="1" parent="1">
          <mxGeometry x="265" y="170" width="10" height="30" as="geometry" />
        </mxCell>
        <mxCell id="S1U6I2X5g81D62Wpko52-22" value="1:Chọn &quot;Sửa SP&quot;" style="html=1;verticalAlign=bottom;startArrow=oval;endArrow=block;startSize=8;fontSize=12;" edge="1" parent="1">
          <mxGeometry relative="1" as="geometry">
            <mxPoint x="95" y="170" as="sourcePoint" />
            <mxPoint x="265" y="170" as="targetPoint" />
          </mxGeometry>
        </mxCell>
        <mxCell id="S1U6I2X5g81D62Wpko52-23" value="" style="html=1;points=[];perimeter=orthogonalPerimeter;fontSize=12;" vertex="1" parent="1">
          <mxGeometry x="590" y="190" width="10" height="30" as="geometry" />
        </mxCell>
        <mxCell id="S1U6I2X5g81D62Wpko52-25" value="2:Gửi yêu cầu sửaSP" style="html=1;verticalAlign=bottom;endArrow=block;fontSize=12;entryX=0.1;entryY=0.025;entryDx=0;entryDy=0;entryPerimeter=0;exitX=1.1;exitY=0.733;exitDx=0;exitDy=0;exitPerimeter=0;" edge="1" parent="1" source="S1U6I2X5g81D62Wpko52-21" target="S1U6I2X5g81D62Wpko52-23">
          <mxGeometry x="-0.0221" y="6" width="80" relative="1" as="geometry">
            <mxPoint x="280" y="192" as="sourcePoint" />
            <mxPoint x="460" y="300" as="targetPoint" />
            <mxPoint as="offset" />
          </mxGeometry>
        </mxCell>
        <mxCell id="S1U6I2X5g81D62Wpko52-26" value="3:Trả về giao diện" style="html=1;verticalAlign=bottom;endArrow=open;dashed=1;endSize=8;fontSize=12;exitX=0.2;exitY=0.833;exitDx=0;exitDy=0;exitPerimeter=0;" edge="1" parent="1" source="S1U6I2X5g81D62Wpko52-23">
          <mxGeometry relative="1" as="geometry">
            <mxPoint x="460" y="300" as="sourcePoint" />
            <mxPoint x="440" y="215" as="targetPoint" />
          </mxGeometry>
        </mxCell>
        <mxCell id="S1U6I2X5g81D62Wpko52-27" value="4:GD gồm các trường thông tin , nút &quot;Sửa SP&quot;và &quot;Hủy&quot;" style="html=1;verticalAlign=bottom;endArrow=open;dashed=1;endSize=8;fontSize=12;" edge="1" parent="1">
          <mxGeometry relative="1" as="geometry">
            <mxPoint x="440" y="230" as="sourcePoint" />
            <mxPoint x="100" y="230" as="targetPoint" />
          </mxGeometry>
        </mxCell>
        <mxCell id="S1U6I2X5g81D62Wpko52-31" value="[True]" style="text;html=1;align=center;verticalAlign=middle;resizable=0;points=[];autosize=1;strokeColor=none;fontSize=12;" vertex="1" parent="1">
          <mxGeometry x="10" y="300" width="50" height="20" as="geometry" />
        </mxCell>
        <mxCell id="S1U6I2X5g81D62Wpko52-36" value="5:Bấm chọn &quot;Hủy&quot;" style="html=1;verticalAlign=bottom;endArrow=block;fontSize=12;entryX=0;entryY=0;entryDx=0;entryDy=0;entryPerimeter=0;" edge="1" parent="1" target="S1U6I2X5g81D62Wpko52-41">
          <mxGeometry width="80" relative="1" as="geometry">
            <mxPoint x="100" y="280" as="sourcePoint" />
            <mxPoint x="440" y="280" as="targetPoint" />
          </mxGeometry>
        </mxCell>
        <mxCell id="S1U6I2X5g81D62Wpko52-41" value="" style="html=1;points=[];perimeter=orthogonalPerimeter;fontSize=12;" vertex="1" parent="1">
          <mxGeometry x="435" y="280" width="10" height="40" as="geometry" />
        </mxCell>
        <mxCell id="S1U6I2X5g81D62Wpko52-42" value="6:Trở về GD QLSP" style="html=1;verticalAlign=bottom;endArrow=open;dashed=1;endSize=8;fontSize=12;exitX=0.1;exitY=0.975;exitDx=0;exitDy=0;exitPerimeter=0;" edge="1" parent="1" source="S1U6I2X5g81D62Wpko52-41">
          <mxGeometry relative="1" as="geometry">
            <mxPoint x="460" y="240" as="sourcePoint" />
            <mxPoint x="270" y="320" as="targetPoint" />
          </mxGeometry>
        </mxCell>
        <mxCell id="S1U6I2X5g81D62Wpko52-43" value="[False]" style="text;html=1;align=center;verticalAlign=middle;resizable=0;points=[];autosize=1;strokeColor=none;fontSize=12;" vertex="1" parent="1">
          <mxGeometry x="10" y="380" width="50" height="20" as="geometry" />
        </mxCell>
        <mxCell id="S1U6I2X5g81D62Wpko52-44" value="7:Nhập thông tin và chọn &quot;Sửa SP&quot;" style="html=1;verticalAlign=bottom;endArrow=block;fontSize=12;" edge="1" parent="1" target="S1U6I2X5g81D62Wpko52-45">
          <mxGeometry width="80" relative="1" as="geometry">
            <mxPoint x="100" y="400" as="sourcePoint" />
            <mxPoint x="430" y="400" as="targetPoint" />
          </mxGeometry>
        </mxCell>
        <mxCell id="S1U6I2X5g81D62Wpko52-45" value="" style="html=1;points=[];perimeter=orthogonalPerimeter;fontSize=12;" vertex="1" parent="1">
          <mxGeometry x="435" y="400" width="10" height="360" as="geometry" />
        </mxCell>
        <mxCell id="S1U6I2X5g81D62Wpko52-46" value="8: Thêm thông tin" style="html=1;verticalAlign=bottom;endArrow=block;fontSize=12;" edge="1" parent="1" source="S1U6I2X5g81D62Wpko52-45" target="S1U6I2X5g81D62Wpko52-47">
          <mxGeometry width="80" relative="1" as="geometry">
            <mxPoint x="380" y="240" as="sourcePoint" />
            <mxPoint x="590" y="410" as="targetPoint" />
            <Array as="points">
              <mxPoint x="510" y="410" />
            </Array>
          </mxGeometry>
        </mxCell>
        <mxCell id="S1U6I2X5g81D62Wpko52-47" value="" style="html=1;points=[];perimeter=orthogonalPerimeter;fontSize=12;" vertex="1" parent="1">
          <mxGeometry x="590" y="410" width="10" height="350" as="geometry" />
        </mxCell>
        <mxCell id="S1U6I2X5g81D62Wpko52-48" value="" style="html=1;points=[];perimeter=orthogonalPerimeter;fontSize=12;" vertex="1" parent="1">
          <mxGeometry x="595" y="440" width="15" height="40" as="geometry" />
        </mxCell>
        <mxCell id="S1U6I2X5g81D62Wpko52-49" value="9: Kiểm tra thông tin" style="edgeStyle=orthogonalEdgeStyle;html=1;align=left;spacingLeft=2;endArrow=block;rounded=0;entryX=1;entryY=0;fontSize=12;" edge="1" target="S1U6I2X5g81D62Wpko52-48" parent="1">
          <mxGeometry relative="1" as="geometry">
            <mxPoint x="600" y="420" as="sourcePoint" />
            <Array as="points">
              <mxPoint x="630" y="420" />
            </Array>
          </mxGeometry>
        </mxCell>
        <mxCell id="S1U6I2X5g81D62Wpko52-50" value="10: Truy cập CSDL" style="html=1;verticalAlign=bottom;endArrow=block;fontSize=12;" edge="1" parent="1">
          <mxGeometry width="80" relative="1" as="geometry">
            <mxPoint x="613" y="470" as="sourcePoint" />
            <mxPoint x="750" y="468" as="targetPoint" />
            <Array as="points" />
          </mxGeometry>
        </mxCell>
        <mxCell id="S1U6I2X5g81D62Wpko52-51" value="" style="html=1;points=[];perimeter=orthogonalPerimeter;fontSize=12;" vertex="1" parent="1">
          <mxGeometry x="750" y="470" width="10" height="80" as="geometry" />
        </mxCell>
        <mxCell id="S1U6I2X5g81D62Wpko52-52" value="" style="html=1;points=[];perimeter=orthogonalPerimeter;fontSize=12;" vertex="1" parent="1">
          <mxGeometry x="755" y="500" width="10" height="40" as="geometry" />
        </mxCell>
        <mxCell id="S1U6I2X5g81D62Wpko52-53" value="11:Kiểm tra" style="edgeStyle=orthogonalEdgeStyle;html=1;align=left;spacingLeft=2;endArrow=block;rounded=0;entryX=1;entryY=0;fontSize=12;" edge="1" target="S1U6I2X5g81D62Wpko52-52" parent="1">
          <mxGeometry relative="1" as="geometry">
            <mxPoint x="760" y="480" as="sourcePoint" />
            <Array as="points">
              <mxPoint x="790" y="480" />
            </Array>
          </mxGeometry>
        </mxCell>
        <mxCell id="S1U6I2X5g81D62Wpko52-54" value="12:Thông báo thành công" style="html=1;verticalAlign=bottom;endArrow=open;dashed=1;endSize=8;fontSize=12;exitX=0;exitY=0.75;exitDx=0;exitDy=0;exitPerimeter=0;" edge="1" parent="1" source="S1U6I2X5g81D62Wpko52-52">
          <mxGeometry relative="1" as="geometry">
            <mxPoint x="470" y="640" as="sourcePoint" />
            <mxPoint x="600" y="530" as="targetPoint" />
          </mxGeometry>
        </mxCell>
        <mxCell id="S1U6I2X5g81D62Wpko52-55" value="13: Thông báo thành công" style="html=1;verticalAlign=bottom;endArrow=open;dashed=1;endSize=8;fontSize=12;exitX=-0.2;exitY=0.429;exitDx=0;exitDy=0;exitPerimeter=0;" edge="1" parent="1" source="S1U6I2X5g81D62Wpko52-47">
          <mxGeometry relative="1" as="geometry">
            <mxPoint x="470" y="640" as="sourcePoint" />
            <mxPoint x="450" y="560" as="targetPoint" />
          </mxGeometry>
        </mxCell>
        <mxCell id="S1U6I2X5g81D62Wpko52-56" value="14: Trả về GD QLSP sau khi thêm SP" style="html=1;verticalAlign=bottom;endArrow=open;dashed=1;endSize=8;fontSize=12;exitX=0;exitY=0.508;exitDx=0;exitDy=0;exitPerimeter=0;" edge="1" parent="1" source="S1U6I2X5g81D62Wpko52-45">
          <mxGeometry x="0.2727" relative="1" as="geometry">
            <mxPoint x="470" y="640" as="sourcePoint" />
            <mxPoint x="270" y="583" as="targetPoint" />
            <mxPoint as="offset" />
          </mxGeometry>
        </mxCell>
        <mxCell id="S1U6I2X5g81D62Wpko52-57" value="15:Thông báo không thành công" style="html=1;verticalAlign=bottom;endArrow=open;dashed=1;endSize=8;fontSize=12;exitX=0;exitY=0.654;exitDx=0;exitDy=0;exitPerimeter=0;" edge="1" parent="1" source="S1U6I2X5g81D62Wpko52-47">
          <mxGeometry relative="1" as="geometry">
            <mxPoint x="470" y="640" as="sourcePoint" />
            <mxPoint x="450" y="640" as="targetPoint" />
          </mxGeometry>
        </mxCell>
        <mxCell id="S1U6I2X5g81D62Wpko52-58" value="16: Thông báo sản phẩm đã tồn tại" style="html=1;verticalAlign=bottom;endArrow=open;dashed=1;endSize=8;fontSize=12;exitX=0.2;exitY=0.725;exitDx=0;exitDy=0;exitPerimeter=0;" edge="1" parent="1" source="S1U6I2X5g81D62Wpko52-45">
          <mxGeometry relative="1" as="geometry">
            <mxPoint x="470" y="640" as="sourcePoint" />
            <mxPoint x="100" y="661" as="targetPoint" />
          </mxGeometry>
        </mxCell>
        <mxCell id="S1U6I2X5g81D62Wpko52-59" value="17: Thông báo nhập thiếu" style="html=1;verticalAlign=bottom;endArrow=open;dashed=1;endSize=8;fontSize=12;entryX=1.5;entryY=0.833;entryDx=0;entryDy=0;entryPerimeter=0;" edge="1" parent="1" target="S1U6I2X5g81D62Wpko52-45">
          <mxGeometry relative="1" as="geometry">
            <mxPoint x="590" y="700" as="sourcePoint" />
            <mxPoint x="510" y="700" as="targetPoint" />
          </mxGeometry>
        </mxCell>
        <mxCell id="S1U6I2X5g81D62Wpko52-60" value="18: Thông báo nhập thiếu và yêu cầu nhập lại" style="html=1;verticalAlign=bottom;endArrow=open;dashed=1;endSize=8;fontSize=12;" edge="1" parent="1">
          <mxGeometry relative="1" as="geometry">
            <mxPoint x="435" y="720" as="sourcePoint" />
            <mxPoint x="100" y="720" as="targetPoint" />
          </mxGeometry>
        </mxCell>
        <mxCell id="S1U6I2X5g81D62Wpko52-62" value="[True]" style="text;html=1;align=center;verticalAlign=middle;resizable=0;points=[];autosize=1;strokeColor=none;fontSize=12;" vertex="1" parent="1">
          <mxGeometry x="30" y="480" width="50" height="20" as="geometry" />
        </mxCell>
        <mxCell id="S1U6I2X5g81D62Wpko52-63" value="[True]" style="text;html=1;align=center;verticalAlign=middle;resizable=0;points=[];autosize=1;strokeColor=none;fontSize=12;" vertex="1" parent="1">
          <mxGeometry x="40" y="560" width="50" height="20" as="geometry" />
        </mxCell>
        <mxCell id="S1U6I2X5g81D62Wpko52-64" value="[False]" style="text;html=1;align=center;verticalAlign=middle;resizable=0;points=[];autosize=1;strokeColor=none;fontSize=12;" vertex="1" parent="1">
          <mxGeometry x="40" y="620" width="50" height="20" as="geometry" />
        </mxCell>
        <mxCell id="S1U6I2X5g81D62Wpko52-65" value="[False]" style="text;html=1;align=center;verticalAlign=middle;resizable=0;points=[];autosize=1;strokeColor=none;fontSize=12;" vertex="1" parent="1">
          <mxGeometry x="10" y="700" width="50" height="20" as="geometry" />
        </mxCell>
        <mxCell id="S1U6I2X5g81D62Wpko52-67" value="" style="endArrow=none;dashed=1;html=1;dashPattern=1 3;strokeWidth=2;fontSize=12;exitX=0.001;exitY=0.203;exitDx=0;exitDy=0;exitPerimeter=0;entryX=1.002;entryY=0.205;entryDx=0;entryDy=0;entryPerimeter=0;" edge="1" parent="1">
          <mxGeometry width="50" height="50" relative="1" as="geometry">
            <mxPoint x="-39.059999999999945" y="365.86" as="sourcePoint" />
            <mxPoint x="901.8800000000001" y="367.1" as="targetPoint" />
          </mxGeometry>
        </mxCell>
        <mxCell id="S1U6I2X5g81D62Wpko52-70" value="" style="endArrow=none;dashed=1;html=1;dashPattern=1 3;strokeWidth=2;fontSize=12;exitX=0.001;exitY=0.524;exitDx=0;exitDy=0;exitPerimeter=0;entryX=0.999;entryY=0.524;entryDx=0;entryDy=0;entryPerimeter=0;" edge="1" parent="1">
          <mxGeometry width="50" height="50" relative="1" as="geometry">
            <mxPoint x="40.75999999999999" y="593.8399999999999" as="sourcePoint" />
            <mxPoint x="799.2399999999998" y="593.8399999999999" as="targetPoint" />
            <Array as="points">
              <mxPoint x="360" y="599" />
            </Array>
          </mxGeometry>
        </mxCell>
        <mxCell id="S1U6I2X5g81D62Wpko52-71" value="" style="endArrow=none;dashed=1;html=1;dashPattern=1 3;strokeWidth=2;fontSize=12;exitX=-0.003;exitY=0.592;exitDx=0;exitDy=0;exitPerimeter=0;" edge="1" parent="1">
          <mxGeometry width="50" height="50" relative="1" as="geometry">
            <mxPoint x="-2.519999999999982" y="680.8800000000001" as="sourcePoint" />
            <mxPoint x="880" y="681" as="targetPoint" />
          </mxGeometry>
        </mxCell>
        <mxCell id="nolrGAkS4s71YQMXujwB-1" value="sd Sửa SP" style="shape=umlFrame;whiteSpace=wrap;html=1;fontSize=12;" vertex="1" parent="1">
          <mxGeometry x="-80" width="1000" height="880" as="geometry" />
        </mxCell>
        <mxCell id="nolrGAkS4s71YQMXujwB-2" value="alt Chọn &quot;Hủy&quot;" style="shape=umlFrame;whiteSpace=wrap;html=1;fontSize=12;" vertex="1" parent="1">
          <mxGeometry x="-40" y="240" width="940" height="620" as="geometry" />
        </mxCell>
        <mxCell id="nolrGAkS4s71YQMXujwB-3" value="alt Nhập thiếu" style="shape=umlFrame;whiteSpace=wrap;html=1;fontSize=12;" vertex="1" parent="1">
          <mxGeometry y="450" width="880" height="390" as="geometry" />
        </mxCell>
        <mxCell id="nolrGAkS4s71YQMXujwB-4" value="alt KT trùng" style="shape=umlFrame;whiteSpace=wrap;html=1;fontSize=12;" vertex="1" parent="1">
          <mxGeometry x="40" y="510" width="760" height="160" as="geometry" />
        </mxCell>
      </root>
    </mxGraphModel>
  </diagram>
  <diagram id="mMt2oVR8VySUst_ACdSh" name="Page-2">
    <mxGraphModel dx="1102" dy="557" grid="1" gridSize="10" guides="1" tooltips="1" connect="1" arrows="1" fold="1" page="1" pageScale="1" pageWidth="1169" pageHeight="1654" math="0" shadow="0">
      <root>
        <mxCell id="H0j2o-uxDTVLAtJrjjwK-0" />
        <mxCell id="H0j2o-uxDTVLAtJrjjwK-1" parent="H0j2o-uxDTVLAtJrjjwK-0" />
        <mxCell id="c-cviStDWO0gf37jP2vC-0" value="Actor" style="shape=umlActor;verticalLabelPosition=bottom;verticalAlign=top;html=1;outlineConnect=0;" vertex="1" parent="H0j2o-uxDTVLAtJrjjwK-1">
          <mxGeometry x="410" y="95" width="30" height="60" as="geometry" />
        </mxCell>
        <mxCell id="c-cviStDWO0gf37jP2vC-1" value="" style="endArrow=none;dashed=1;html=1;" edge="1" target="c-cviStDWO0gf37jP2vC-0" parent="H0j2o-uxDTVLAtJrjjwK-1">
          <mxGeometry width="50" height="50" relative="1" as="geometry">
            <mxPoint x="425" y="560" as="sourcePoint" />
            <mxPoint x="780" y="345" as="targetPoint" />
          </mxGeometry>
        </mxCell>
        <mxCell id="c-cviStDWO0gf37jP2vC-2" value=":Quản lý,nhân viên&lt;br style=&quot;font-size: 12px;&quot;&gt;" style="edgeLabel;html=1;align=center;verticalAlign=middle;resizable=0;points=[];fontStyle=1;fontSize=12;" vertex="1" connectable="0" parent="c-cviStDWO0gf37jP2vC-1">
          <mxGeometry x="0.922" y="3" relative="1" as="geometry">
            <mxPoint x="3" y="-6" as="offset" />
          </mxGeometry>
        </mxCell>
        <mxCell id="c-cviStDWO0gf37jP2vC-3" value="" style="shape=umlBoundary;whiteSpace=wrap;html=1;fontSize=12;" vertex="1" parent="H0j2o-uxDTVLAtJrjjwK-1">
          <mxGeometry x="560" y="95" width="70" height="50" as="geometry" />
        </mxCell>
        <mxCell id="c-cviStDWO0gf37jP2vC-4" value=":GD_QLSanPham" style="text;html=1;align=center;verticalAlign=middle;resizable=0;points=[];autosize=1;strokeColor=none;fontSize=12;" vertex="1" parent="H0j2o-uxDTVLAtJrjjwK-1">
          <mxGeometry x="545" y="155" width="110" height="20" as="geometry" />
        </mxCell>
        <mxCell id="c-cviStDWO0gf37jP2vC-5" value="" style="shape=umlBoundary;whiteSpace=wrap;html=1;fontSize=12;" vertex="1" parent="H0j2o-uxDTVLAtJrjjwK-1">
          <mxGeometry x="560" y="95" width="70" height="50" as="geometry" />
        </mxCell>
        <mxCell id="c-cviStDWO0gf37jP2vC-8" value="" style="ellipse;shape=umlEntity;whiteSpace=wrap;html=1;fontSize=12;" vertex="1" parent="H0j2o-uxDTVLAtJrjjwK-1">
          <mxGeometry x="960" y="100" width="60" height="50" as="geometry" />
        </mxCell>
        <mxCell id="c-cviStDWO0gf37jP2vC-9" value="" style="ellipse;shape=umlControl;whiteSpace=wrap;html=1;fontSize=12;" vertex="1" parent="H0j2o-uxDTVLAtJrjjwK-1">
          <mxGeometry x="770" y="90" width="60" height="60" as="geometry" />
        </mxCell>
        <mxCell id="c-cviStDWO0gf37jP2vC-10" value=":Xóa SP" style="text;html=1;align=center;verticalAlign=middle;resizable=0;points=[];autosize=1;strokeColor=none;fontSize=12;" vertex="1" parent="H0j2o-uxDTVLAtJrjjwK-1">
          <mxGeometry x="775" y="155" width="60" height="20" as="geometry" />
        </mxCell>
        <mxCell id="c-cviStDWO0gf37jP2vC-11" value=":SanPham" style="text;html=1;align=center;verticalAlign=middle;resizable=0;points=[];autosize=1;strokeColor=none;fontSize=12;" vertex="1" parent="H0j2o-uxDTVLAtJrjjwK-1">
          <mxGeometry x="960" y="155" width="70" height="20" as="geometry" />
        </mxCell>
        <mxCell id="c-cviStDWO0gf37jP2vC-12" value="" style="endArrow=none;dashed=1;html=1;fontSize=12;" edge="1" target="c-cviStDWO0gf37jP2vC-4" parent="H0j2o-uxDTVLAtJrjjwK-1">
          <mxGeometry width="50" height="50" relative="1" as="geometry">
            <mxPoint x="600" y="560" as="sourcePoint" />
            <mxPoint x="780" y="345" as="targetPoint" />
          </mxGeometry>
        </mxCell>
        <mxCell id="c-cviStDWO0gf37jP2vC-14" value="" style="endArrow=none;dashed=1;html=1;fontSize=12;entryX=0.471;entryY=1.15;entryDx=0;entryDy=0;entryPerimeter=0;" edge="1" target="c-cviStDWO0gf37jP2vC-10" parent="H0j2o-uxDTVLAtJrjjwK-1">
          <mxGeometry width="50" height="50" relative="1" as="geometry">
            <mxPoint x="803" y="560" as="sourcePoint" />
            <mxPoint x="780" y="345" as="targetPoint" />
          </mxGeometry>
        </mxCell>
        <mxCell id="c-cviStDWO0gf37jP2vC-15" value="" style="endArrow=none;dashed=1;html=1;fontSize=12;entryX=0.471;entryY=1;entryDx=0;entryDy=0;entryPerimeter=0;" edge="1" target="c-cviStDWO0gf37jP2vC-11" parent="H0j2o-uxDTVLAtJrjjwK-1">
          <mxGeometry width="50" height="50" relative="1" as="geometry">
            <mxPoint x="993" y="560" as="sourcePoint" />
            <mxPoint x="780" y="345" as="targetPoint" />
          </mxGeometry>
        </mxCell>
        <mxCell id="c-cviStDWO0gf37jP2vC-16" value="" style="html=1;points=[];perimeter=orthogonalPerimeter;fontSize=12;" vertex="1" parent="H0j2o-uxDTVLAtJrjjwK-1">
          <mxGeometry x="595" y="225" width="10" height="30" as="geometry" />
        </mxCell>
        <mxCell id="c-cviStDWO0gf37jP2vC-17" value="1:Chọn &quot;Xóa &quot;" style="html=1;verticalAlign=bottom;startArrow=oval;endArrow=block;startSize=8;fontSize=12;" edge="1" parent="H0j2o-uxDTVLAtJrjjwK-1">
          <mxGeometry relative="1" as="geometry">
            <mxPoint x="425" y="225" as="sourcePoint" />
            <mxPoint x="595" y="225" as="targetPoint" />
          </mxGeometry>
        </mxCell>
        <mxCell id="c-cviStDWO0gf37jP2vC-18" value="" style="html=1;points=[];perimeter=orthogonalPerimeter;fontSize=12;" vertex="1" parent="H0j2o-uxDTVLAtJrjjwK-1">
          <mxGeometry x="795" y="245" width="10" height="55" as="geometry" />
        </mxCell>
        <mxCell id="c-cviStDWO0gf37jP2vC-19" value="2:Gửi yêu cầu xóa SP" style="html=1;verticalAlign=bottom;endArrow=block;fontSize=12;entryX=0.1;entryY=0.025;entryDx=0;entryDy=0;entryPerimeter=0;exitX=1.1;exitY=0.733;exitDx=0;exitDy=0;exitPerimeter=0;" edge="1" source="c-cviStDWO0gf37jP2vC-16" target="c-cviStDWO0gf37jP2vC-18" parent="H0j2o-uxDTVLAtJrjjwK-1">
          <mxGeometry x="-0.0221" y="6" width="80" relative="1" as="geometry">
            <mxPoint x="610" y="247" as="sourcePoint" />
            <mxPoint x="790" y="355" as="targetPoint" />
            <mxPoint as="offset" />
          </mxGeometry>
        </mxCell>
        <mxCell id="c-cviStDWO0gf37jP2vC-22" value="[True]" style="text;html=1;align=center;verticalAlign=middle;resizable=0;points=[];autosize=1;strokeColor=none;fontSize=12;" vertex="1" parent="H0j2o-uxDTVLAtJrjjwK-1">
          <mxGeometry x="340" y="355" width="50" height="20" as="geometry" />
        </mxCell>
        <mxCell id="c-cviStDWO0gf37jP2vC-23" value="4:Bấm chọn &quot;Hủy&quot;" style="html=1;verticalAlign=bottom;endArrow=block;fontSize=12;entryX=0;entryY=0;entryDx=0;entryDy=0;entryPerimeter=0;" edge="1" target="c-cviStDWO0gf37jP2vC-24" parent="H0j2o-uxDTVLAtJrjjwK-1">
          <mxGeometry width="80" relative="1" as="geometry">
            <mxPoint x="430" y="335" as="sourcePoint" />
            <mxPoint x="770" y="335" as="targetPoint" />
          </mxGeometry>
        </mxCell>
        <mxCell id="c-cviStDWO0gf37jP2vC-24" value="" style="html=1;points=[];perimeter=orthogonalPerimeter;fontSize=12;" vertex="1" parent="H0j2o-uxDTVLAtJrjjwK-1">
          <mxGeometry x="800" y="335" width="10" height="40" as="geometry" />
        </mxCell>
        <mxCell id="c-cviStDWO0gf37jP2vC-25" value="5:Trở về GD QLSP" style="html=1;verticalAlign=bottom;endArrow=open;dashed=1;endSize=8;fontSize=12;exitX=0.1;exitY=0.975;exitDx=0;exitDy=0;exitPerimeter=0;" edge="1" source="c-cviStDWO0gf37jP2vC-24" parent="H0j2o-uxDTVLAtJrjjwK-1">
          <mxGeometry relative="1" as="geometry">
            <mxPoint x="790" y="295" as="sourcePoint" />
            <mxPoint x="600" y="375" as="targetPoint" />
          </mxGeometry>
        </mxCell>
        <mxCell id="c-cviStDWO0gf37jP2vC-26" value="[False]" style="text;html=1;align=center;verticalAlign=middle;resizable=0;points=[];autosize=1;strokeColor=none;fontSize=12;" vertex="1" parent="H0j2o-uxDTVLAtJrjjwK-1">
          <mxGeometry x="340" y="435" width="50" height="20" as="geometry" />
        </mxCell>
        <mxCell id="Y31kB75L8U5iUVvzDBoy-50" value="6: Bấm &quot;Đồng ý&quot;" style="html=1;verticalAlign=bottom;endArrow=block;fontSize=12;" edge="1" parent="H0j2o-uxDTVLAtJrjjwK-1" target="JZdWrecGRH0CLSicWrAZ-0">
          <mxGeometry width="80" relative="1" as="geometry">
            <mxPoint x="430" y="440" as="sourcePoint" />
            <mxPoint x="770" y="440" as="targetPoint" />
          </mxGeometry>
        </mxCell>
        <mxCell id="JZdWrecGRH0CLSicWrAZ-0" value="" style="html=1;points=[];perimeter=orthogonalPerimeter;fontSize=12;" vertex="1" parent="H0j2o-uxDTVLAtJrjjwK-1">
          <mxGeometry x="800" y="430" width="10" height="80" as="geometry" />
        </mxCell>
        <mxCell id="JZdWrecGRH0CLSicWrAZ-1" value="7: Xóa sản phẩm" style="html=1;verticalAlign=bottom;endArrow=block;fontSize=12;entryX=0.1;entryY=0.063;entryDx=0;entryDy=0;entryPerimeter=0;" edge="1" parent="H0j2o-uxDTVLAtJrjjwK-1" target="JZdWrecGRH0CLSicWrAZ-3">
          <mxGeometry width="80" relative="1" as="geometry">
            <mxPoint x="810" y="444.5" as="sourcePoint" />
            <mxPoint x="990" y="445" as="targetPoint" />
          </mxGeometry>
        </mxCell>
        <mxCell id="JZdWrecGRH0CLSicWrAZ-3" value="" style="html=1;points=[];perimeter=orthogonalPerimeter;fontSize=12;" vertex="1" parent="H0j2o-uxDTVLAtJrjjwK-1">
          <mxGeometry x="990" y="440" width="10" height="60" as="geometry" />
        </mxCell>
        <mxCell id="JZdWrecGRH0CLSicWrAZ-4" value="8: Thông báo thành công" style="html=1;verticalAlign=bottom;endArrow=open;dashed=1;endSize=8;fontSize=12;" edge="1" parent="H0j2o-uxDTVLAtJrjjwK-1" target="JZdWrecGRH0CLSicWrAZ-0">
          <mxGeometry relative="1" as="geometry">
            <mxPoint x="988" y="480" as="sourcePoint" />
            <mxPoint x="750" y="390" as="targetPoint" />
            <Array as="points">
              <mxPoint x="930" y="480" />
            </Array>
          </mxGeometry>
        </mxCell>
        <mxCell id="JZdWrecGRH0CLSicWrAZ-5" value="9: Quay lại giao diện QLSP" style="html=1;verticalAlign=bottom;endArrow=open;dashed=1;endSize=8;fontSize=12;exitX=-0.1;exitY=0.825;exitDx=0;exitDy=0;exitPerimeter=0;" edge="1" parent="H0j2o-uxDTVLAtJrjjwK-1" source="JZdWrecGRH0CLSicWrAZ-0">
          <mxGeometry relative="1" as="geometry">
            <mxPoint x="830" y="390" as="sourcePoint" />
            <mxPoint x="600" y="496" as="targetPoint" />
          </mxGeometry>
        </mxCell>
        <mxCell id="JZdWrecGRH0CLSicWrAZ-6" value="10: Thông báo thành công" style="html=1;verticalAlign=bottom;endArrow=open;dashed=1;endSize=8;fontSize=12;" edge="1" parent="H0j2o-uxDTVLAtJrjjwK-1">
          <mxGeometry relative="1" as="geometry">
            <mxPoint x="600" y="520" as="sourcePoint" />
            <mxPoint x="430" y="520" as="targetPoint" />
          </mxGeometry>
        </mxCell>
        <mxCell id="JZdWrecGRH0CLSicWrAZ-9" value="alt Chọn &quot;Hủy&quot;" style="shape=umlFrame;whiteSpace=wrap;html=1;fontSize=12;" vertex="1" parent="H0j2o-uxDTVLAtJrjjwK-1">
          <mxGeometry x="320" y="310" width="720" height="260" as="geometry" />
        </mxCell>
        <mxCell id="JZdWrecGRH0CLSicWrAZ-10" value="" style="endArrow=none;dashed=1;html=1;dashPattern=1 3;strokeWidth=2;fontSize=12;exitX=-0.001;exitY=0.35;exitDx=0;exitDy=0;exitPerimeter=0;entryX=1.001;entryY=0.35;entryDx=0;entryDy=0;entryPerimeter=0;" edge="1" parent="H0j2o-uxDTVLAtJrjjwK-1" source="JZdWrecGRH0CLSicWrAZ-9" target="JZdWrecGRH0CLSicWrAZ-9">
          <mxGeometry width="50" height="50" relative="1" as="geometry">
            <mxPoint x="770" y="410" as="sourcePoint" />
            <mxPoint x="820" y="360" as="targetPoint" />
          </mxGeometry>
        </mxCell>
        <mxCell id="JZdWrecGRH0CLSicWrAZ-12" value="3: Hiển thị thông báo &quot;Đồng ý&quot; hoặc &quot;Hủy&quot;" style="html=1;verticalAlign=bottom;endArrow=open;dashed=1;endSize=8;fontSize=12;exitX=0.5;exitY=0.636;exitDx=0;exitDy=0;exitPerimeter=0;" edge="1" parent="H0j2o-uxDTVLAtJrjjwK-1" source="c-cviStDWO0gf37jP2vC-18">
          <mxGeometry relative="1" as="geometry">
            <mxPoint x="830" y="400" as="sourcePoint" />
            <mxPoint x="430" y="280" as="targetPoint" />
          </mxGeometry>
        </mxCell>
        <mxCell id="JZdWrecGRH0CLSicWrAZ-14" value="sd Xóa SP" style="shape=umlFrame;whiteSpace=wrap;html=1;fontSize=12;" vertex="1" parent="H0j2o-uxDTVLAtJrjjwK-1">
          <mxGeometry x="280" y="80" width="800" height="560" as="geometry" />
        </mxCell>
      </root>
    </mxGraphModel>
  </diagram>
  <diagram id="CTYhHr_ET22pSiaMMvW4" name="Page-3">
    <mxGraphModel dx="1102" dy="557" grid="1" gridSize="10" guides="1" tooltips="1" connect="1" arrows="1" fold="1" page="1" pageScale="1" pageWidth="1169" pageHeight="1654" math="0" shadow="0">
      <root>
        <mxCell id="bWLEIq4Ci29xB_QgvFRX-0" />
        <mxCell id="bWLEIq4Ci29xB_QgvFRX-1" parent="bWLEIq4Ci29xB_QgvFRX-0" />
        <mxCell id="bWLEIq4Ci29xB_QgvFRX-2" value="Actor" style="shape=umlActor;verticalLabelPosition=bottom;verticalAlign=top;html=1;outlineConnect=0;" vertex="1" parent="bWLEIq4Ci29xB_QgvFRX-1">
          <mxGeometry x="430" y="175" width="30" height="60" as="geometry" />
        </mxCell>
        <mxCell id="bWLEIq4Ci29xB_QgvFRX-3" value="" style="endArrow=none;dashed=1;html=1;" edge="1" target="bWLEIq4Ci29xB_QgvFRX-2" parent="bWLEIq4Ci29xB_QgvFRX-1">
          <mxGeometry width="50" height="50" relative="1" as="geometry">
            <mxPoint x="445" y="460" as="sourcePoint" />
            <mxPoint x="800" y="425" as="targetPoint" />
            <Array as="points">
              <mxPoint x="445" y="320" />
            </Array>
          </mxGeometry>
        </mxCell>
        <mxCell id="bWLEIq4Ci29xB_QgvFRX-4" value=":Quản lý,nhân viên&lt;br style=&quot;font-size: 12px;&quot;&gt;" style="edgeLabel;html=1;align=center;verticalAlign=middle;resizable=0;points=[];fontStyle=1;fontSize=12;" vertex="1" connectable="0" parent="bWLEIq4Ci29xB_QgvFRX-3">
          <mxGeometry x="0.922" y="3" relative="1" as="geometry">
            <mxPoint x="3" y="1" as="offset" />
          </mxGeometry>
        </mxCell>
        <mxCell id="bWLEIq4Ci29xB_QgvFRX-5" value="" style="shape=umlBoundary;whiteSpace=wrap;html=1;fontSize=12;" vertex="1" parent="bWLEIq4Ci29xB_QgvFRX-1">
          <mxGeometry x="580" y="175" width="70" height="50" as="geometry" />
        </mxCell>
        <mxCell id="bWLEIq4Ci29xB_QgvFRX-6" value=":GD_QLSanPham" style="text;html=1;align=center;verticalAlign=middle;resizable=0;points=[];autosize=1;strokeColor=none;fontSize=12;" vertex="1" parent="bWLEIq4Ci29xB_QgvFRX-1">
          <mxGeometry x="565" y="235" width="110" height="20" as="geometry" />
        </mxCell>
        <mxCell id="bWLEIq4Ci29xB_QgvFRX-7" value="" style="shape=umlBoundary;whiteSpace=wrap;html=1;fontSize=12;" vertex="1" parent="bWLEIq4Ci29xB_QgvFRX-1">
          <mxGeometry x="580" y="175" width="70" height="50" as="geometry" />
        </mxCell>
        <mxCell id="bWLEIq4Ci29xB_QgvFRX-10" value="" style="ellipse;shape=umlEntity;whiteSpace=wrap;html=1;fontSize=12;" vertex="1" parent="bWLEIq4Ci29xB_QgvFRX-1">
          <mxGeometry x="920" y="175" width="60" height="50" as="geometry" />
        </mxCell>
        <mxCell id="bWLEIq4Ci29xB_QgvFRX-11" value="" style="ellipse;shape=umlControl;whiteSpace=wrap;html=1;fontSize=12;" vertex="1" parent="bWLEIq4Ci29xB_QgvFRX-1">
          <mxGeometry x="760" y="170" width="60" height="60" as="geometry" />
        </mxCell>
        <mxCell id="bWLEIq4Ci29xB_QgvFRX-12" value=":CT_QL SanPham" style="text;html=1;align=center;verticalAlign=middle;resizable=0;points=[];autosize=1;strokeColor=none;fontSize=12;" vertex="1" parent="bWLEIq4Ci29xB_QgvFRX-1">
          <mxGeometry x="735" y="235" width="110" height="20" as="geometry" />
        </mxCell>
        <mxCell id="bWLEIq4Ci29xB_QgvFRX-13" value=":SanPham" style="text;html=1;align=center;verticalAlign=middle;resizable=0;points=[];autosize=1;strokeColor=none;fontSize=12;" vertex="1" parent="bWLEIq4Ci29xB_QgvFRX-1">
          <mxGeometry x="920" y="235" width="70" height="20" as="geometry" />
        </mxCell>
        <mxCell id="bWLEIq4Ci29xB_QgvFRX-14" value="" style="endArrow=none;dashed=1;html=1;fontSize=12;" edge="1" target="bWLEIq4Ci29xB_QgvFRX-6" parent="bWLEIq4Ci29xB_QgvFRX-1">
          <mxGeometry width="50" height="50" relative="1" as="geometry">
            <mxPoint x="620" y="460" as="sourcePoint" />
            <mxPoint x="800" y="425" as="targetPoint" />
          </mxGeometry>
        </mxCell>
        <mxCell id="bWLEIq4Ci29xB_QgvFRX-16" value="" style="endArrow=none;dashed=1;html=1;fontSize=12;entryX=0.471;entryY=1.15;entryDx=0;entryDy=0;entryPerimeter=0;" edge="1" target="bWLEIq4Ci29xB_QgvFRX-12" parent="bWLEIq4Ci29xB_QgvFRX-1">
          <mxGeometry width="50" height="50" relative="1" as="geometry">
            <mxPoint x="787" y="460" as="sourcePoint" />
            <mxPoint x="800" y="425" as="targetPoint" />
          </mxGeometry>
        </mxCell>
        <mxCell id="bWLEIq4Ci29xB_QgvFRX-17" value="" style="endArrow=none;dashed=1;html=1;fontSize=12;entryX=0.471;entryY=1;entryDx=0;entryDy=0;entryPerimeter=0;" edge="1" target="bWLEIq4Ci29xB_QgvFRX-13" parent="bWLEIq4Ci29xB_QgvFRX-1">
          <mxGeometry width="50" height="50" relative="1" as="geometry">
            <mxPoint x="953" y="460" as="sourcePoint" />
            <mxPoint x="800" y="425" as="targetPoint" />
          </mxGeometry>
        </mxCell>
        <mxCell id="KlhbCTf69HcfUxySJVS_-0" value="1: Chọn &quot;QL sản phẩm&quot;" style="html=1;verticalAlign=bottom;startArrow=oval;startFill=1;endArrow=block;startSize=8;fontSize=12;" edge="1" parent="bWLEIq4Ci29xB_QgvFRX-1" target="KlhbCTf69HcfUxySJVS_-1">
          <mxGeometry width="60" relative="1" as="geometry">
            <mxPoint x="450" y="320" as="sourcePoint" />
            <mxPoint x="620" y="320" as="targetPoint" />
          </mxGeometry>
        </mxCell>
        <mxCell id="KlhbCTf69HcfUxySJVS_-1" value="" style="html=1;points=[];perimeter=orthogonalPerimeter;fontSize=12;" vertex="1" parent="bWLEIq4Ci29xB_QgvFRX-1">
          <mxGeometry x="615" y="320" width="10" height="120" as="geometry" />
        </mxCell>
        <mxCell id="KlhbCTf69HcfUxySJVS_-2" value="2: Gửi yêu cầu QLSP" style="html=1;verticalAlign=bottom;endArrow=block;fontSize=12;exitX=1.3;exitY=0.213;exitDx=0;exitDy=0;exitPerimeter=0;" edge="1" parent="bWLEIq4Ci29xB_QgvFRX-1" source="KlhbCTf69HcfUxySJVS_-1" target="KlhbCTf69HcfUxySJVS_-3">
          <mxGeometry width="80" relative="1" as="geometry">
            <mxPoint x="780" y="490" as="sourcePoint" />
            <mxPoint x="780" y="337" as="targetPoint" />
          </mxGeometry>
        </mxCell>
        <mxCell id="KlhbCTf69HcfUxySJVS_-3" value="" style="html=1;points=[];perimeter=orthogonalPerimeter;fontSize=12;" vertex="1" parent="bWLEIq4Ci29xB_QgvFRX-1">
          <mxGeometry x="785" y="340" width="10" height="90" as="geometry" />
        </mxCell>
        <mxCell id="KlhbCTf69HcfUxySJVS_-4" value="3: Lấy dữ liệu" style="html=1;verticalAlign=bottom;endArrow=block;fontSize=12;exitX=1.1;exitY=0.225;exitDx=0;exitDy=0;exitPerimeter=0;" edge="1" parent="bWLEIq4Ci29xB_QgvFRX-1" source="KlhbCTf69HcfUxySJVS_-3" target="KlhbCTf69HcfUxySJVS_-5">
          <mxGeometry width="80" relative="1" as="geometry">
            <mxPoint x="780" y="490" as="sourcePoint" />
            <mxPoint x="950" y="358" as="targetPoint" />
          </mxGeometry>
        </mxCell>
        <mxCell id="KlhbCTf69HcfUxySJVS_-5" value="" style="html=1;points=[];perimeter=orthogonalPerimeter;fontSize=12;" vertex="1" parent="bWLEIq4Ci29xB_QgvFRX-1">
          <mxGeometry x="950" y="360" width="10" height="50" as="geometry" />
        </mxCell>
        <mxCell id="KlhbCTf69HcfUxySJVS_-6" value="4: Trả về thông tin" style="html=1;verticalAlign=bottom;endArrow=open;dashed=1;endSize=8;fontSize=12;exitX=0;exitY=0.78;exitDx=0;exitDy=0;exitPerimeter=0;" edge="1" parent="bWLEIq4Ci29xB_QgvFRX-1" source="KlhbCTf69HcfUxySJVS_-5">
          <mxGeometry relative="1" as="geometry">
            <mxPoint x="860" y="490" as="sourcePoint" />
            <mxPoint x="798" y="400" as="targetPoint" />
          </mxGeometry>
        </mxCell>
        <mxCell id="KlhbCTf69HcfUxySJVS_-7" value="5: Hiển thị thông tin ra GD&lt;br&gt;QLSP" style="html=1;verticalAlign=bottom;endArrow=open;dashed=1;endSize=8;fontSize=12;entryX=1;entryY=0.842;entryDx=0;entryDy=0;entryPerimeter=0;" edge="1" parent="bWLEIq4Ci29xB_QgvFRX-1" target="KlhbCTf69HcfUxySJVS_-1">
          <mxGeometry relative="1" as="geometry">
            <mxPoint x="780" y="420" as="sourcePoint" />
            <mxPoint x="700" y="410" as="targetPoint" />
            <Array as="points">
              <mxPoint x="710" y="420" />
            </Array>
          </mxGeometry>
        </mxCell>
        <mxCell id="KlhbCTf69HcfUxySJVS_-8" value="sd QL SanPham" style="shape=umlFrame;whiteSpace=wrap;html=1;fontSize=12;" vertex="1" parent="bWLEIq4Ci29xB_QgvFRX-1">
          <mxGeometry x="360" y="480" width="760" height="320" as="geometry" />
        </mxCell>
      </root>
    </mxGraphModel>
  </diagram>
  <diagram id="xGY2QLzUxApJZGsAUorq" name="Page-4">
    <mxGraphModel dx="1102" dy="557" grid="1" gridSize="10" guides="1" tooltips="1" connect="1" arrows="1" fold="1" page="1" pageScale="1" pageWidth="1169" pageHeight="1654" math="0" shadow="0">
      <root>
        <mxCell id="7N6UTJoiAR-57A6Oyyy8-0" />
        <mxCell id="7N6UTJoiAR-57A6Oyyy8-1" parent="7N6UTJoiAR-57A6Oyyy8-0" />
        <mxCell id="7N6UTJoiAR-57A6Oyyy8-2" value="Actor" style="shape=umlActor;verticalLabelPosition=bottom;verticalAlign=top;html=1;outlineConnect=0;" vertex="1" parent="7N6UTJoiAR-57A6Oyyy8-1">
          <mxGeometry x="320" y="135" width="30" height="60" as="geometry" />
        </mxCell>
        <mxCell id="7N6UTJoiAR-57A6Oyyy8-3" value="" style="endArrow=none;dashed=1;html=1;" edge="1" target="7N6UTJoiAR-57A6Oyyy8-2" parent="7N6UTJoiAR-57A6Oyyy8-1">
          <mxGeometry width="50" height="50" relative="1" as="geometry">
            <mxPoint x="335" y="915" as="sourcePoint" />
            <mxPoint x="690" y="385" as="targetPoint" />
          </mxGeometry>
        </mxCell>
        <mxCell id="7N6UTJoiAR-57A6Oyyy8-4" value=":Quản lý,nhân viên&lt;br style=&quot;font-size: 12px;&quot;&gt;" style="edgeLabel;html=1;align=center;verticalAlign=middle;resizable=0;points=[];fontStyle=1;fontSize=12;" vertex="1" connectable="0" parent="7N6UTJoiAR-57A6Oyyy8-3">
          <mxGeometry x="0.922" y="3" relative="1" as="geometry">
            <mxPoint as="offset" />
          </mxGeometry>
        </mxCell>
        <mxCell id="7N6UTJoiAR-57A6Oyyy8-5" value="" style="shape=umlBoundary;whiteSpace=wrap;html=1;fontSize=12;" vertex="1" parent="7N6UTJoiAR-57A6Oyyy8-1">
          <mxGeometry x="470" y="135" width="70" height="50" as="geometry" />
        </mxCell>
        <mxCell id="7N6UTJoiAR-57A6Oyyy8-6" value=":GD_QLSanPham" style="text;html=1;align=center;verticalAlign=middle;resizable=0;points=[];autosize=1;strokeColor=none;fontSize=12;" vertex="1" parent="7N6UTJoiAR-57A6Oyyy8-1">
          <mxGeometry x="455" y="195" width="110" height="20" as="geometry" />
        </mxCell>
        <mxCell id="7N6UTJoiAR-57A6Oyyy8-7" value="" style="shape=umlBoundary;whiteSpace=wrap;html=1;fontSize=12;" vertex="1" parent="7N6UTJoiAR-57A6Oyyy8-1">
          <mxGeometry x="470" y="135" width="70" height="50" as="geometry" />
        </mxCell>
        <mxCell id="7N6UTJoiAR-57A6Oyyy8-8" value="" style="shape=umlBoundary;whiteSpace=wrap;html=1;fontSize=12;" vertex="1" parent="7N6UTJoiAR-57A6Oyyy8-1">
          <mxGeometry x="640" y="135" width="70" height="50" as="geometry" />
        </mxCell>
        <mxCell id="7N6UTJoiAR-57A6Oyyy8-9" value=":GD_Thêm SP&lt;br&gt;" style="text;html=1;align=center;verticalAlign=middle;resizable=0;points=[];autosize=1;strokeColor=none;fontSize=12;" vertex="1" parent="7N6UTJoiAR-57A6Oyyy8-1">
          <mxGeometry x="635" y="195" width="90" height="20" as="geometry" />
        </mxCell>
        <mxCell id="7N6UTJoiAR-57A6Oyyy8-10" value="" style="ellipse;shape=umlEntity;whiteSpace=wrap;html=1;fontSize=12;" vertex="1" parent="7N6UTJoiAR-57A6Oyyy8-1">
          <mxGeometry x="960" y="135" width="60" height="50" as="geometry" />
        </mxCell>
        <mxCell id="7N6UTJoiAR-57A6Oyyy8-11" value="" style="ellipse;shape=umlControl;whiteSpace=wrap;html=1;fontSize=12;" vertex="1" parent="7N6UTJoiAR-57A6Oyyy8-1">
          <mxGeometry x="800" y="130" width="60" height="60" as="geometry" />
        </mxCell>
        <mxCell id="7N6UTJoiAR-57A6Oyyy8-12" value=":Thêm SP&lt;br&gt;" style="text;html=1;align=center;verticalAlign=middle;resizable=0;points=[];autosize=1;strokeColor=none;fontSize=12;" vertex="1" parent="7N6UTJoiAR-57A6Oyyy8-1">
          <mxGeometry x="800" y="195" width="70" height="20" as="geometry" />
        </mxCell>
        <mxCell id="7N6UTJoiAR-57A6Oyyy8-13" value=":SanPham" style="text;html=1;align=center;verticalAlign=middle;resizable=0;points=[];autosize=1;strokeColor=none;fontSize=12;" vertex="1" parent="7N6UTJoiAR-57A6Oyyy8-1">
          <mxGeometry x="960" y="195" width="70" height="20" as="geometry" />
        </mxCell>
        <mxCell id="7N6UTJoiAR-57A6Oyyy8-14" value="" style="endArrow=none;dashed=1;html=1;fontSize=12;" edge="1" target="7N6UTJoiAR-57A6Oyyy8-6" parent="7N6UTJoiAR-57A6Oyyy8-1">
          <mxGeometry width="50" height="50" relative="1" as="geometry">
            <mxPoint x="510" y="915" as="sourcePoint" />
            <mxPoint x="690" y="385" as="targetPoint" />
          </mxGeometry>
        </mxCell>
        <mxCell id="7N6UTJoiAR-57A6Oyyy8-15" value="" style="endArrow=none;dashed=1;html=1;fontSize=12;entryX=0.478;entryY=1.1;entryDx=0;entryDy=0;entryPerimeter=0;" edge="1" target="7N6UTJoiAR-57A6Oyyy8-9" parent="7N6UTJoiAR-57A6Oyyy8-1">
          <mxGeometry width="50" height="50" relative="1" as="geometry">
            <mxPoint x="678" y="915" as="sourcePoint" />
            <mxPoint x="690" y="385" as="targetPoint" />
          </mxGeometry>
        </mxCell>
        <mxCell id="7N6UTJoiAR-57A6Oyyy8-16" value="" style="endArrow=none;dashed=1;html=1;fontSize=12;entryX=0.471;entryY=1.15;entryDx=0;entryDy=0;entryPerimeter=0;" edge="1" target="7N6UTJoiAR-57A6Oyyy8-12" parent="7N6UTJoiAR-57A6Oyyy8-1">
          <mxGeometry width="50" height="50" relative="1" as="geometry">
            <mxPoint x="833" y="915" as="sourcePoint" />
            <mxPoint x="690" y="385" as="targetPoint" />
          </mxGeometry>
        </mxCell>
        <mxCell id="7N6UTJoiAR-57A6Oyyy8-17" value="" style="endArrow=none;dashed=1;html=1;fontSize=12;entryX=0.471;entryY=1;entryDx=0;entryDy=0;entryPerimeter=0;" edge="1" target="7N6UTJoiAR-57A6Oyyy8-13" parent="7N6UTJoiAR-57A6Oyyy8-1">
          <mxGeometry width="50" height="50" relative="1" as="geometry">
            <mxPoint x="993" y="915" as="sourcePoint" />
            <mxPoint x="690" y="385" as="targetPoint" />
          </mxGeometry>
        </mxCell>
        <mxCell id="7N6UTJoiAR-57A6Oyyy8-18" value="" style="html=1;points=[];perimeter=orthogonalPerimeter;fontSize=12;" vertex="1" parent="7N6UTJoiAR-57A6Oyyy8-1">
          <mxGeometry x="505" y="265" width="10" height="30" as="geometry" />
        </mxCell>
        <mxCell id="7N6UTJoiAR-57A6Oyyy8-19" value="1:Chọn &quot;Thêm SP&quot;" style="html=1;verticalAlign=bottom;startArrow=oval;endArrow=block;startSize=8;fontSize=12;" edge="1" parent="7N6UTJoiAR-57A6Oyyy8-1">
          <mxGeometry relative="1" as="geometry">
            <mxPoint x="335" y="265" as="sourcePoint" />
            <mxPoint x="505" y="265" as="targetPoint" />
          </mxGeometry>
        </mxCell>
        <mxCell id="7N6UTJoiAR-57A6Oyyy8-20" value="" style="html=1;points=[];perimeter=orthogonalPerimeter;fontSize=12;" vertex="1" parent="7N6UTJoiAR-57A6Oyyy8-1">
          <mxGeometry x="830" y="285" width="10" height="30" as="geometry" />
        </mxCell>
        <mxCell id="7N6UTJoiAR-57A6Oyyy8-21" value="2:Gửi yêu cầu thêm SP" style="html=1;verticalAlign=bottom;endArrow=block;fontSize=12;entryX=0.1;entryY=0.025;entryDx=0;entryDy=0;entryPerimeter=0;exitX=1.1;exitY=0.733;exitDx=0;exitDy=0;exitPerimeter=0;" edge="1" source="7N6UTJoiAR-57A6Oyyy8-18" target="7N6UTJoiAR-57A6Oyyy8-20" parent="7N6UTJoiAR-57A6Oyyy8-1">
          <mxGeometry x="-0.0221" y="6" width="80" relative="1" as="geometry">
            <mxPoint x="520" y="287" as="sourcePoint" />
            <mxPoint x="700" y="395" as="targetPoint" />
            <mxPoint as="offset" />
          </mxGeometry>
        </mxCell>
        <mxCell id="7N6UTJoiAR-57A6Oyyy8-22" value="3:Trả về giao diện" style="html=1;verticalAlign=bottom;endArrow=open;dashed=1;endSize=8;fontSize=12;exitX=0.2;exitY=0.833;exitDx=0;exitDy=0;exitPerimeter=0;" edge="1" source="7N6UTJoiAR-57A6Oyyy8-20" parent="7N6UTJoiAR-57A6Oyyy8-1">
          <mxGeometry relative="1" as="geometry">
            <mxPoint x="700" y="395" as="sourcePoint" />
            <mxPoint x="680" y="310" as="targetPoint" />
          </mxGeometry>
        </mxCell>
        <mxCell id="7N6UTJoiAR-57A6Oyyy8-23" value="4:GD gồm các trường thông tin , nút &quot;Thêm SP&quot;và &quot;Hủy&quot;" style="html=1;verticalAlign=bottom;endArrow=open;dashed=1;endSize=8;fontSize=12;" edge="1" parent="7N6UTJoiAR-57A6Oyyy8-1">
          <mxGeometry relative="1" as="geometry">
            <mxPoint x="680" y="325" as="sourcePoint" />
            <mxPoint x="340" y="325" as="targetPoint" />
          </mxGeometry>
        </mxCell>
        <mxCell id="7N6UTJoiAR-57A6Oyyy8-24" value="[True]" style="text;html=1;align=center;verticalAlign=middle;resizable=0;points=[];autosize=1;strokeColor=none;fontSize=12;" vertex="1" parent="7N6UTJoiAR-57A6Oyyy8-1">
          <mxGeometry x="250" y="395" width="50" height="20" as="geometry" />
        </mxCell>
        <mxCell id="7N6UTJoiAR-57A6Oyyy8-25" value="5:Bấm chọn &quot;Hủy&quot;" style="html=1;verticalAlign=bottom;endArrow=block;fontSize=12;entryX=0;entryY=0;entryDx=0;entryDy=0;entryPerimeter=0;" edge="1" target="7N6UTJoiAR-57A6Oyyy8-26" parent="7N6UTJoiAR-57A6Oyyy8-1">
          <mxGeometry width="80" relative="1" as="geometry">
            <mxPoint x="340" y="375" as="sourcePoint" />
            <mxPoint x="680" y="375" as="targetPoint" />
          </mxGeometry>
        </mxCell>
        <mxCell id="7N6UTJoiAR-57A6Oyyy8-26" value="" style="html=1;points=[];perimeter=orthogonalPerimeter;fontSize=12;" vertex="1" parent="7N6UTJoiAR-57A6Oyyy8-1">
          <mxGeometry x="675" y="375" width="10" height="40" as="geometry" />
        </mxCell>
        <mxCell id="7N6UTJoiAR-57A6Oyyy8-27" value="6:Trở về GD QLSP" style="html=1;verticalAlign=bottom;endArrow=open;dashed=1;endSize=8;fontSize=12;exitX=0.1;exitY=0.975;exitDx=0;exitDy=0;exitPerimeter=0;" edge="1" source="7N6UTJoiAR-57A6Oyyy8-26" parent="7N6UTJoiAR-57A6Oyyy8-1">
          <mxGeometry relative="1" as="geometry">
            <mxPoint x="700" y="335" as="sourcePoint" />
            <mxPoint x="510" y="415" as="targetPoint" />
          </mxGeometry>
        </mxCell>
        <mxCell id="7N6UTJoiAR-57A6Oyyy8-28" value="[False]" style="text;html=1;align=center;verticalAlign=middle;resizable=0;points=[];autosize=1;strokeColor=none;fontSize=12;" vertex="1" parent="7N6UTJoiAR-57A6Oyyy8-1">
          <mxGeometry x="250" y="475" width="50" height="20" as="geometry" />
        </mxCell>
        <mxCell id="7N6UTJoiAR-57A6Oyyy8-29" value="7:Nhập thông tin và chọn &quot;Thêm SP&quot;" style="html=1;verticalAlign=bottom;endArrow=block;fontSize=12;" edge="1" target="7N6UTJoiAR-57A6Oyyy8-30" parent="7N6UTJoiAR-57A6Oyyy8-1">
          <mxGeometry width="80" relative="1" as="geometry">
            <mxPoint x="340" y="495" as="sourcePoint" />
            <mxPoint x="670" y="495" as="targetPoint" />
          </mxGeometry>
        </mxCell>
        <mxCell id="7N6UTJoiAR-57A6Oyyy8-30" value="" style="html=1;points=[];perimeter=orthogonalPerimeter;fontSize=12;" vertex="1" parent="7N6UTJoiAR-57A6Oyyy8-1">
          <mxGeometry x="675" y="495" width="10" height="360" as="geometry" />
        </mxCell>
        <mxCell id="7N6UTJoiAR-57A6Oyyy8-31" value="8: Thêm thông tin" style="html=1;verticalAlign=bottom;endArrow=block;fontSize=12;" edge="1" source="7N6UTJoiAR-57A6Oyyy8-30" target="7N6UTJoiAR-57A6Oyyy8-32" parent="7N6UTJoiAR-57A6Oyyy8-1">
          <mxGeometry width="80" relative="1" as="geometry">
            <mxPoint x="620" y="335" as="sourcePoint" />
            <mxPoint x="830" y="505" as="targetPoint" />
            <Array as="points">
              <mxPoint x="750" y="505" />
            </Array>
          </mxGeometry>
        </mxCell>
        <mxCell id="7N6UTJoiAR-57A6Oyyy8-32" value="" style="html=1;points=[];perimeter=orthogonalPerimeter;fontSize=12;" vertex="1" parent="7N6UTJoiAR-57A6Oyyy8-1">
          <mxGeometry x="830" y="505" width="10" height="350" as="geometry" />
        </mxCell>
        <mxCell id="7N6UTJoiAR-57A6Oyyy8-33" value="" style="html=1;points=[];perimeter=orthogonalPerimeter;fontSize=12;" vertex="1" parent="7N6UTJoiAR-57A6Oyyy8-1">
          <mxGeometry x="835" y="535" width="15" height="40" as="geometry" />
        </mxCell>
        <mxCell id="7N6UTJoiAR-57A6Oyyy8-34" value="9: Kiểm tra thông tin" style="edgeStyle=orthogonalEdgeStyle;html=1;align=left;spacingLeft=2;endArrow=block;rounded=0;entryX=1;entryY=0;fontSize=12;" edge="1" target="7N6UTJoiAR-57A6Oyyy8-33" parent="7N6UTJoiAR-57A6Oyyy8-1">
          <mxGeometry relative="1" as="geometry">
            <mxPoint x="840" y="515" as="sourcePoint" />
            <Array as="points">
              <mxPoint x="870" y="515" />
            </Array>
          </mxGeometry>
        </mxCell>
        <mxCell id="7N6UTJoiAR-57A6Oyyy8-35" value="10: Truy cập CSDL" style="html=1;verticalAlign=bottom;endArrow=block;fontSize=12;" edge="1" parent="7N6UTJoiAR-57A6Oyyy8-1">
          <mxGeometry width="80" relative="1" as="geometry">
            <mxPoint x="853" y="565" as="sourcePoint" />
            <mxPoint x="990" y="563" as="targetPoint" />
            <Array as="points" />
          </mxGeometry>
        </mxCell>
        <mxCell id="7N6UTJoiAR-57A6Oyyy8-36" value="" style="html=1;points=[];perimeter=orthogonalPerimeter;fontSize=12;" vertex="1" parent="7N6UTJoiAR-57A6Oyyy8-1">
          <mxGeometry x="990" y="565" width="10" height="80" as="geometry" />
        </mxCell>
        <mxCell id="7N6UTJoiAR-57A6Oyyy8-37" value="" style="html=1;points=[];perimeter=orthogonalPerimeter;fontSize=12;" vertex="1" parent="7N6UTJoiAR-57A6Oyyy8-1">
          <mxGeometry x="995" y="595" width="10" height="40" as="geometry" />
        </mxCell>
        <mxCell id="7N6UTJoiAR-57A6Oyyy8-38" value="11:Kiểm tra" style="edgeStyle=orthogonalEdgeStyle;html=1;align=left;spacingLeft=2;endArrow=block;rounded=0;entryX=1;entryY=0;fontSize=12;" edge="1" target="7N6UTJoiAR-57A6Oyyy8-37" parent="7N6UTJoiAR-57A6Oyyy8-1">
          <mxGeometry relative="1" as="geometry">
            <mxPoint x="1000" y="575" as="sourcePoint" />
            <Array as="points">
              <mxPoint x="1030" y="575" />
            </Array>
          </mxGeometry>
        </mxCell>
        <mxCell id="7N6UTJoiAR-57A6Oyyy8-39" value="12:Thông báo thành công" style="html=1;verticalAlign=bottom;endArrow=open;dashed=1;endSize=8;fontSize=12;exitX=0;exitY=0.75;exitDx=0;exitDy=0;exitPerimeter=0;" edge="1" source="7N6UTJoiAR-57A6Oyyy8-37" parent="7N6UTJoiAR-57A6Oyyy8-1">
          <mxGeometry relative="1" as="geometry">
            <mxPoint x="710" y="735" as="sourcePoint" />
            <mxPoint x="840" y="625" as="targetPoint" />
          </mxGeometry>
        </mxCell>
        <mxCell id="7N6UTJoiAR-57A6Oyyy8-40" value="13: Thông báo thành công" style="html=1;verticalAlign=bottom;endArrow=open;dashed=1;endSize=8;fontSize=12;exitX=-0.2;exitY=0.429;exitDx=0;exitDy=0;exitPerimeter=0;" edge="1" source="7N6UTJoiAR-57A6Oyyy8-32" parent="7N6UTJoiAR-57A6Oyyy8-1">
          <mxGeometry relative="1" as="geometry">
            <mxPoint x="710" y="735" as="sourcePoint" />
            <mxPoint x="690" y="655" as="targetPoint" />
          </mxGeometry>
        </mxCell>
        <mxCell id="7N6UTJoiAR-57A6Oyyy8-41" value="14: Trả về GD QLSP sau khi thêm SP" style="html=1;verticalAlign=bottom;endArrow=open;dashed=1;endSize=8;fontSize=12;exitX=0;exitY=0.508;exitDx=0;exitDy=0;exitPerimeter=0;" edge="1" source="7N6UTJoiAR-57A6Oyyy8-30" parent="7N6UTJoiAR-57A6Oyyy8-1">
          <mxGeometry x="0.2727" relative="1" as="geometry">
            <mxPoint x="710" y="735" as="sourcePoint" />
            <mxPoint x="510" y="678" as="targetPoint" />
            <mxPoint as="offset" />
          </mxGeometry>
        </mxCell>
        <mxCell id="7N6UTJoiAR-57A6Oyyy8-42" value="15:Thông báo không thành công" style="html=1;verticalAlign=bottom;endArrow=open;dashed=1;endSize=8;fontSize=12;exitX=0;exitY=0.654;exitDx=0;exitDy=0;exitPerimeter=0;" edge="1" source="7N6UTJoiAR-57A6Oyyy8-32" parent="7N6UTJoiAR-57A6Oyyy8-1">
          <mxGeometry relative="1" as="geometry">
            <mxPoint x="710" y="735" as="sourcePoint" />
            <mxPoint x="690" y="735" as="targetPoint" />
          </mxGeometry>
        </mxCell>
        <mxCell id="7N6UTJoiAR-57A6Oyyy8-43" value="16: Thông báo sản phẩm đã tồn tại" style="html=1;verticalAlign=bottom;endArrow=open;dashed=1;endSize=8;fontSize=12;exitX=0.2;exitY=0.725;exitDx=0;exitDy=0;exitPerimeter=0;" edge="1" source="7N6UTJoiAR-57A6Oyyy8-30" parent="7N6UTJoiAR-57A6Oyyy8-1">
          <mxGeometry relative="1" as="geometry">
            <mxPoint x="710" y="735" as="sourcePoint" />
            <mxPoint x="340" y="756" as="targetPoint" />
          </mxGeometry>
        </mxCell>
        <mxCell id="7N6UTJoiAR-57A6Oyyy8-44" value="17: Thông báo nhập thiếu" style="html=1;verticalAlign=bottom;endArrow=open;dashed=1;endSize=8;fontSize=12;entryX=1.5;entryY=0.833;entryDx=0;entryDy=0;entryPerimeter=0;" edge="1" target="7N6UTJoiAR-57A6Oyyy8-30" parent="7N6UTJoiAR-57A6Oyyy8-1">
          <mxGeometry relative="1" as="geometry">
            <mxPoint x="830" y="795" as="sourcePoint" />
            <mxPoint x="750" y="795" as="targetPoint" />
          </mxGeometry>
        </mxCell>
        <mxCell id="7N6UTJoiAR-57A6Oyyy8-45" value="18: Thông báo nhập thiếu và yêu cầu nhập lại" style="html=1;verticalAlign=bottom;endArrow=open;dashed=1;endSize=8;fontSize=12;" edge="1" parent="7N6UTJoiAR-57A6Oyyy8-1">
          <mxGeometry relative="1" as="geometry">
            <mxPoint x="675" y="815" as="sourcePoint" />
            <mxPoint x="340" y="815" as="targetPoint" />
          </mxGeometry>
        </mxCell>
        <mxCell id="7N6UTJoiAR-57A6Oyyy8-46" value="[True]" style="text;html=1;align=center;verticalAlign=middle;resizable=0;points=[];autosize=1;strokeColor=none;fontSize=12;" vertex="1" parent="7N6UTJoiAR-57A6Oyyy8-1">
          <mxGeometry x="270" y="575" width="50" height="20" as="geometry" />
        </mxCell>
        <mxCell id="7N6UTJoiAR-57A6Oyyy8-47" value="[True]" style="text;html=1;align=center;verticalAlign=middle;resizable=0;points=[];autosize=1;strokeColor=none;fontSize=12;" vertex="1" parent="7N6UTJoiAR-57A6Oyyy8-1">
          <mxGeometry x="280" y="655" width="50" height="20" as="geometry" />
        </mxCell>
        <mxCell id="7N6UTJoiAR-57A6Oyyy8-48" value="[False]" style="text;html=1;align=center;verticalAlign=middle;resizable=0;points=[];autosize=1;strokeColor=none;fontSize=12;" vertex="1" parent="7N6UTJoiAR-57A6Oyyy8-1">
          <mxGeometry x="280" y="715" width="50" height="20" as="geometry" />
        </mxCell>
        <mxCell id="7N6UTJoiAR-57A6Oyyy8-49" value="[False]" style="text;html=1;align=center;verticalAlign=middle;resizable=0;points=[];autosize=1;strokeColor=none;fontSize=12;" vertex="1" parent="7N6UTJoiAR-57A6Oyyy8-1">
          <mxGeometry x="250" y="795" width="50" height="20" as="geometry" />
        </mxCell>
        <mxCell id="7N6UTJoiAR-57A6Oyyy8-50" value="" style="endArrow=none;dashed=1;html=1;dashPattern=1 3;strokeWidth=2;fontSize=12;exitX=0.001;exitY=0.524;exitDx=0;exitDy=0;exitPerimeter=0;entryX=0.999;entryY=0.524;entryDx=0;entryDy=0;entryPerimeter=0;" edge="1" parent="7N6UTJoiAR-57A6Oyyy8-1">
          <mxGeometry width="50" height="50" relative="1" as="geometry">
            <mxPoint x="280.76" y="688.8399999999999" as="sourcePoint" />
            <mxPoint x="1039.2399999999998" y="688.8399999999999" as="targetPoint" />
            <Array as="points">
              <mxPoint x="600" y="694" />
            </Array>
          </mxGeometry>
        </mxCell>
        <mxCell id="7N6UTJoiAR-57A6Oyyy8-51" value="" style="endArrow=none;dashed=1;html=1;dashPattern=1 3;strokeWidth=2;fontSize=12;exitX=-0.003;exitY=0.592;exitDx=0;exitDy=0;exitPerimeter=0;entryX=0.999;entryY=0.592;entryDx=0;entryDy=0;entryPerimeter=0;" edge="1" parent="7N6UTJoiAR-57A6Oyyy8-1">
          <mxGeometry width="50" height="50" relative="1" as="geometry">
            <mxPoint x="237.48000000000002" y="775.8800000000001" as="sourcePoint" />
            <mxPoint x="1079.1599999999999" y="775.8800000000001" as="targetPoint" />
          </mxGeometry>
        </mxCell>
      </root>
    </mxGraphModel>
  </diagram>
  <diagram id="eaxwObEIAAGOY8sWB2Is" name="Page-5">
    <mxGraphModel dx="1102" dy="557" grid="1" gridSize="10" guides="1" tooltips="1" connect="1" arrows="1" fold="1" page="1" pageScale="1" pageWidth="1169" pageHeight="1654" math="0" shadow="0">
      <root>
        <mxCell id="im4jYfLHDOuufb_Sz_qF-0" />
        <mxCell id="im4jYfLHDOuufb_Sz_qF-1" parent="im4jYfLHDOuufb_Sz_qF-0" />
        <mxCell id="im4jYfLHDOuufb_Sz_qF-2" value="Actor" style="shape=umlActor;verticalLabelPosition=bottom;verticalAlign=top;html=1;outlineConnect=0;" vertex="1" parent="im4jYfLHDOuufb_Sz_qF-1">
          <mxGeometry x="200" y="75" width="30" height="60" as="geometry" />
        </mxCell>
        <mxCell id="im4jYfLHDOuufb_Sz_qF-3" value="" style="endArrow=none;dashed=1;html=1;" edge="1" target="im4jYfLHDOuufb_Sz_qF-2" parent="im4jYfLHDOuufb_Sz_qF-1">
          <mxGeometry width="50" height="50" relative="1" as="geometry">
            <mxPoint x="215" y="855" as="sourcePoint" />
            <mxPoint x="570" y="325" as="targetPoint" />
          </mxGeometry>
        </mxCell>
        <mxCell id="im4jYfLHDOuufb_Sz_qF-4" value=":Quản lý,nhân viên&lt;br style=&quot;font-size: 12px;&quot;&gt;" style="edgeLabel;html=1;align=center;verticalAlign=middle;resizable=0;points=[];fontStyle=1;fontSize=12;" vertex="1" connectable="0" parent="im4jYfLHDOuufb_Sz_qF-3">
          <mxGeometry x="0.922" y="3" relative="1" as="geometry">
            <mxPoint x="-2" y="-18" as="offset" />
          </mxGeometry>
        </mxCell>
        <mxCell id="im4jYfLHDOuufb_Sz_qF-5" value="" style="shape=umlBoundary;whiteSpace=wrap;html=1;fontSize=12;" vertex="1" parent="im4jYfLHDOuufb_Sz_qF-1">
          <mxGeometry x="350" y="75" width="70" height="50" as="geometry" />
        </mxCell>
        <mxCell id="im4jYfLHDOuufb_Sz_qF-6" value=":GD_QLSanPham" style="text;html=1;align=center;verticalAlign=middle;resizable=0;points=[];autosize=1;strokeColor=none;fontSize=12;" vertex="1" parent="im4jYfLHDOuufb_Sz_qF-1">
          <mxGeometry x="335" y="135" width="110" height="20" as="geometry" />
        </mxCell>
        <mxCell id="im4jYfLHDOuufb_Sz_qF-7" value="" style="shape=umlBoundary;whiteSpace=wrap;html=1;fontSize=12;" vertex="1" parent="im4jYfLHDOuufb_Sz_qF-1">
          <mxGeometry x="350" y="75" width="70" height="50" as="geometry" />
        </mxCell>
        <mxCell id="im4jYfLHDOuufb_Sz_qF-8" value="" style="shape=umlBoundary;whiteSpace=wrap;html=1;fontSize=12;" vertex="1" parent="im4jYfLHDOuufb_Sz_qF-1">
          <mxGeometry x="520" y="75" width="70" height="50" as="geometry" />
        </mxCell>
        <mxCell id="im4jYfLHDOuufb_Sz_qF-9" value=":GD_Thêm SP&lt;br&gt;" style="text;html=1;align=center;verticalAlign=middle;resizable=0;points=[];autosize=1;strokeColor=none;fontSize=12;" vertex="1" parent="im4jYfLHDOuufb_Sz_qF-1">
          <mxGeometry x="515" y="135" width="90" height="20" as="geometry" />
        </mxCell>
        <mxCell id="im4jYfLHDOuufb_Sz_qF-10" value="" style="ellipse;shape=umlEntity;whiteSpace=wrap;html=1;fontSize=12;" vertex="1" parent="im4jYfLHDOuufb_Sz_qF-1">
          <mxGeometry x="840" y="75" width="60" height="50" as="geometry" />
        </mxCell>
        <mxCell id="im4jYfLHDOuufb_Sz_qF-11" value="" style="ellipse;shape=umlControl;whiteSpace=wrap;html=1;fontSize=12;" vertex="1" parent="im4jYfLHDOuufb_Sz_qF-1">
          <mxGeometry x="680" y="70" width="60" height="60" as="geometry" />
        </mxCell>
        <mxCell id="im4jYfLHDOuufb_Sz_qF-12" value=":Thêm SP&lt;br&gt;" style="text;html=1;align=center;verticalAlign=middle;resizable=0;points=[];autosize=1;strokeColor=none;fontSize=12;" vertex="1" parent="im4jYfLHDOuufb_Sz_qF-1">
          <mxGeometry x="680" y="135" width="70" height="20" as="geometry" />
        </mxCell>
        <mxCell id="im4jYfLHDOuufb_Sz_qF-13" value=":SanPham" style="text;html=1;align=center;verticalAlign=middle;resizable=0;points=[];autosize=1;strokeColor=none;fontSize=12;" vertex="1" parent="im4jYfLHDOuufb_Sz_qF-1">
          <mxGeometry x="840" y="135" width="70" height="20" as="geometry" />
        </mxCell>
        <mxCell id="im4jYfLHDOuufb_Sz_qF-14" value="" style="endArrow=none;dashed=1;html=1;fontSize=12;" edge="1" target="im4jYfLHDOuufb_Sz_qF-6" parent="im4jYfLHDOuufb_Sz_qF-1">
          <mxGeometry width="50" height="50" relative="1" as="geometry">
            <mxPoint x="390" y="855" as="sourcePoint" />
            <mxPoint x="570" y="325" as="targetPoint" />
          </mxGeometry>
        </mxCell>
        <mxCell id="im4jYfLHDOuufb_Sz_qF-15" value="" style="endArrow=none;dashed=1;html=1;fontSize=12;entryX=0.478;entryY=1.1;entryDx=0;entryDy=0;entryPerimeter=0;" edge="1" target="im4jYfLHDOuufb_Sz_qF-9" parent="im4jYfLHDOuufb_Sz_qF-1">
          <mxGeometry width="50" height="50" relative="1" as="geometry">
            <mxPoint x="558" y="855" as="sourcePoint" />
            <mxPoint x="570" y="325" as="targetPoint" />
          </mxGeometry>
        </mxCell>
        <mxCell id="im4jYfLHDOuufb_Sz_qF-16" value="" style="endArrow=none;dashed=1;html=1;fontSize=12;entryX=0.471;entryY=1.15;entryDx=0;entryDy=0;entryPerimeter=0;" edge="1" target="im4jYfLHDOuufb_Sz_qF-12" parent="im4jYfLHDOuufb_Sz_qF-1">
          <mxGeometry width="50" height="50" relative="1" as="geometry">
            <mxPoint x="713" y="855" as="sourcePoint" />
            <mxPoint x="570" y="325" as="targetPoint" />
          </mxGeometry>
        </mxCell>
        <mxCell id="im4jYfLHDOuufb_Sz_qF-17" value="" style="endArrow=none;dashed=1;html=1;fontSize=12;entryX=0.471;entryY=1;entryDx=0;entryDy=0;entryPerimeter=0;" edge="1" target="im4jYfLHDOuufb_Sz_qF-13" parent="im4jYfLHDOuufb_Sz_qF-1">
          <mxGeometry width="50" height="50" relative="1" as="geometry">
            <mxPoint x="873" y="855" as="sourcePoint" />
            <mxPoint x="570" y="325" as="targetPoint" />
          </mxGeometry>
        </mxCell>
        <mxCell id="im4jYfLHDOuufb_Sz_qF-18" value="" style="html=1;points=[];perimeter=orthogonalPerimeter;fontSize=12;" vertex="1" parent="im4jYfLHDOuufb_Sz_qF-1">
          <mxGeometry x="385" y="205" width="10" height="30" as="geometry" />
        </mxCell>
        <mxCell id="im4jYfLHDOuufb_Sz_qF-20" value="" style="html=1;points=[];perimeter=orthogonalPerimeter;fontSize=12;" vertex="1" parent="im4jYfLHDOuufb_Sz_qF-1">
          <mxGeometry x="710" y="225" width="10" height="30" as="geometry" />
        </mxCell>
        <mxCell id="im4jYfLHDOuufb_Sz_qF-21" value="2:Gửi yêu cầu thêm SP" style="html=1;verticalAlign=bottom;endArrow=block;fontSize=12;entryX=0.1;entryY=0.025;entryDx=0;entryDy=0;entryPerimeter=0;exitX=1.1;exitY=0.733;exitDx=0;exitDy=0;exitPerimeter=0;" edge="1" source="im4jYfLHDOuufb_Sz_qF-18" target="im4jYfLHDOuufb_Sz_qF-20" parent="im4jYfLHDOuufb_Sz_qF-1">
          <mxGeometry x="-0.0221" y="6" width="80" relative="1" as="geometry">
            <mxPoint x="400" y="227" as="sourcePoint" />
            <mxPoint x="580" y="335" as="targetPoint" />
            <mxPoint as="offset" />
          </mxGeometry>
        </mxCell>
        <mxCell id="im4jYfLHDOuufb_Sz_qF-22" value="3:Trả về giao diện" style="html=1;verticalAlign=bottom;endArrow=open;dashed=1;endSize=8;fontSize=12;exitX=0.2;exitY=0.833;exitDx=0;exitDy=0;exitPerimeter=0;" edge="1" source="im4jYfLHDOuufb_Sz_qF-20" parent="im4jYfLHDOuufb_Sz_qF-1">
          <mxGeometry relative="1" as="geometry">
            <mxPoint x="580" y="335" as="sourcePoint" />
            <mxPoint x="560" y="250" as="targetPoint" />
          </mxGeometry>
        </mxCell>
        <mxCell id="im4jYfLHDOuufb_Sz_qF-23" value="4:GD gồm các trường thông tin , nút &quot;Thêm SP&quot;và &quot;Hủy&quot;" style="html=1;verticalAlign=bottom;endArrow=open;dashed=1;endSize=8;fontSize=12;" edge="1" parent="im4jYfLHDOuufb_Sz_qF-1">
          <mxGeometry relative="1" as="geometry">
            <mxPoint x="560" y="265" as="sourcePoint" />
            <mxPoint x="220" y="265" as="targetPoint" />
          </mxGeometry>
        </mxCell>
        <mxCell id="im4jYfLHDOuufb_Sz_qF-24" value="[True]" style="text;html=1;align=center;verticalAlign=middle;resizable=0;points=[];autosize=1;strokeColor=none;fontSize=12;" vertex="1" parent="im4jYfLHDOuufb_Sz_qF-1">
          <mxGeometry x="130" y="335" width="50" height="20" as="geometry" />
        </mxCell>
        <mxCell id="im4jYfLHDOuufb_Sz_qF-25" value="5:Bấm chọn &quot;Hủy&quot;" style="html=1;verticalAlign=bottom;endArrow=block;fontSize=12;entryX=0;entryY=0;entryDx=0;entryDy=0;entryPerimeter=0;" edge="1" target="im4jYfLHDOuufb_Sz_qF-26" parent="im4jYfLHDOuufb_Sz_qF-1">
          <mxGeometry width="80" relative="1" as="geometry">
            <mxPoint x="220" y="315" as="sourcePoint" />
            <mxPoint x="560" y="315" as="targetPoint" />
          </mxGeometry>
        </mxCell>
        <mxCell id="im4jYfLHDOuufb_Sz_qF-26" value="" style="html=1;points=[];perimeter=orthogonalPerimeter;fontSize=12;" vertex="1" parent="im4jYfLHDOuufb_Sz_qF-1">
          <mxGeometry x="555" y="315" width="10" height="40" as="geometry" />
        </mxCell>
        <mxCell id="im4jYfLHDOuufb_Sz_qF-27" value="6:Trở về GD QLSP" style="html=1;verticalAlign=bottom;endArrow=open;dashed=1;endSize=8;fontSize=12;exitX=0.1;exitY=0.975;exitDx=0;exitDy=0;exitPerimeter=0;" edge="1" source="im4jYfLHDOuufb_Sz_qF-26" parent="im4jYfLHDOuufb_Sz_qF-1">
          <mxGeometry relative="1" as="geometry">
            <mxPoint x="580" y="275" as="sourcePoint" />
            <mxPoint x="390" y="355" as="targetPoint" />
          </mxGeometry>
        </mxCell>
        <mxCell id="im4jYfLHDOuufb_Sz_qF-28" value="[False]" style="text;html=1;align=center;verticalAlign=middle;resizable=0;points=[];autosize=1;strokeColor=none;fontSize=12;" vertex="1" parent="im4jYfLHDOuufb_Sz_qF-1">
          <mxGeometry x="130" y="415" width="50" height="20" as="geometry" />
        </mxCell>
        <mxCell id="im4jYfLHDOuufb_Sz_qF-29" value="7:Nhập thông tin và chọn &quot;Thêm SP&quot;" style="html=1;verticalAlign=bottom;endArrow=block;fontSize=12;" edge="1" target="im4jYfLHDOuufb_Sz_qF-30" parent="im4jYfLHDOuufb_Sz_qF-1">
          <mxGeometry width="80" relative="1" as="geometry">
            <mxPoint x="220" y="435" as="sourcePoint" />
            <mxPoint x="550" y="435" as="targetPoint" />
          </mxGeometry>
        </mxCell>
        <mxCell id="im4jYfLHDOuufb_Sz_qF-30" value="" style="html=1;points=[];perimeter=orthogonalPerimeter;fontSize=12;" vertex="1" parent="im4jYfLHDOuufb_Sz_qF-1">
          <mxGeometry x="555" y="435" width="10" height="360" as="geometry" />
        </mxCell>
        <mxCell id="im4jYfLHDOuufb_Sz_qF-31" value="8: Thêm thông tin" style="html=1;verticalAlign=bottom;endArrow=block;fontSize=12;" edge="1" source="im4jYfLHDOuufb_Sz_qF-30" target="im4jYfLHDOuufb_Sz_qF-32" parent="im4jYfLHDOuufb_Sz_qF-1">
          <mxGeometry width="80" relative="1" as="geometry">
            <mxPoint x="500" y="275" as="sourcePoint" />
            <mxPoint x="710" y="445" as="targetPoint" />
            <Array as="points">
              <mxPoint x="630" y="445" />
            </Array>
          </mxGeometry>
        </mxCell>
        <mxCell id="im4jYfLHDOuufb_Sz_qF-32" value="" style="html=1;points=[];perimeter=orthogonalPerimeter;fontSize=12;" vertex="1" parent="im4jYfLHDOuufb_Sz_qF-1">
          <mxGeometry x="710" y="445" width="10" height="350" as="geometry" />
        </mxCell>
        <mxCell id="im4jYfLHDOuufb_Sz_qF-33" value="" style="html=1;points=[];perimeter=orthogonalPerimeter;fontSize=12;" vertex="1" parent="im4jYfLHDOuufb_Sz_qF-1">
          <mxGeometry x="715" y="475" width="15" height="40" as="geometry" />
        </mxCell>
        <mxCell id="im4jYfLHDOuufb_Sz_qF-34" value="9: Kiểm tra thông tin" style="edgeStyle=orthogonalEdgeStyle;html=1;align=left;spacingLeft=2;endArrow=block;rounded=0;entryX=1;entryY=0;fontSize=12;" edge="1" target="im4jYfLHDOuufb_Sz_qF-33" parent="im4jYfLHDOuufb_Sz_qF-1">
          <mxGeometry relative="1" as="geometry">
            <mxPoint x="720" y="455" as="sourcePoint" />
            <Array as="points">
              <mxPoint x="750" y="455" />
            </Array>
          </mxGeometry>
        </mxCell>
        <mxCell id="im4jYfLHDOuufb_Sz_qF-35" value="10: Truy cập CSDL" style="html=1;verticalAlign=bottom;endArrow=block;fontSize=12;" edge="1" parent="im4jYfLHDOuufb_Sz_qF-1">
          <mxGeometry width="80" relative="1" as="geometry">
            <mxPoint x="733" y="505" as="sourcePoint" />
            <mxPoint x="870" y="503" as="targetPoint" />
            <Array as="points" />
          </mxGeometry>
        </mxCell>
        <mxCell id="im4jYfLHDOuufb_Sz_qF-36" value="" style="html=1;points=[];perimeter=orthogonalPerimeter;fontSize=12;" vertex="1" parent="im4jYfLHDOuufb_Sz_qF-1">
          <mxGeometry x="870" y="505" width="10" height="80" as="geometry" />
        </mxCell>
        <mxCell id="im4jYfLHDOuufb_Sz_qF-37" value="" style="html=1;points=[];perimeter=orthogonalPerimeter;fontSize=12;" vertex="1" parent="im4jYfLHDOuufb_Sz_qF-1">
          <mxGeometry x="875" y="535" width="10" height="40" as="geometry" />
        </mxCell>
        <mxCell id="im4jYfLHDOuufb_Sz_qF-38" value="11:Kiểm tra" style="edgeStyle=orthogonalEdgeStyle;html=1;align=left;spacingLeft=2;endArrow=block;rounded=0;entryX=1;entryY=0;fontSize=12;" edge="1" target="im4jYfLHDOuufb_Sz_qF-37" parent="im4jYfLHDOuufb_Sz_qF-1">
          <mxGeometry relative="1" as="geometry">
            <mxPoint x="880" y="515" as="sourcePoint" />
            <Array as="points">
              <mxPoint x="910" y="515" />
            </Array>
          </mxGeometry>
        </mxCell>
        <mxCell id="im4jYfLHDOuufb_Sz_qF-39" value="12:Thông báo thành công" style="html=1;verticalAlign=bottom;endArrow=open;dashed=1;endSize=8;fontSize=12;exitX=0;exitY=0.75;exitDx=0;exitDy=0;exitPerimeter=0;" edge="1" source="im4jYfLHDOuufb_Sz_qF-37" parent="im4jYfLHDOuufb_Sz_qF-1">
          <mxGeometry relative="1" as="geometry">
            <mxPoint x="590" y="675" as="sourcePoint" />
            <mxPoint x="720" y="565" as="targetPoint" />
          </mxGeometry>
        </mxCell>
        <mxCell id="im4jYfLHDOuufb_Sz_qF-40" value="13: Thông báo thành công" style="html=1;verticalAlign=bottom;endArrow=open;dashed=1;endSize=8;fontSize=12;exitX=-0.2;exitY=0.429;exitDx=0;exitDy=0;exitPerimeter=0;" edge="1" source="im4jYfLHDOuufb_Sz_qF-32" parent="im4jYfLHDOuufb_Sz_qF-1">
          <mxGeometry relative="1" as="geometry">
            <mxPoint x="590" y="675" as="sourcePoint" />
            <mxPoint x="570" y="595" as="targetPoint" />
          </mxGeometry>
        </mxCell>
        <mxCell id="im4jYfLHDOuufb_Sz_qF-41" value="14: Trả về GD QLSP sau khi thêm SP" style="html=1;verticalAlign=bottom;endArrow=open;dashed=1;endSize=8;fontSize=12;exitX=0;exitY=0.508;exitDx=0;exitDy=0;exitPerimeter=0;" edge="1" source="im4jYfLHDOuufb_Sz_qF-30" parent="im4jYfLHDOuufb_Sz_qF-1">
          <mxGeometry x="0.2727" relative="1" as="geometry">
            <mxPoint x="590" y="675" as="sourcePoint" />
            <mxPoint x="390" y="618" as="targetPoint" />
            <mxPoint as="offset" />
          </mxGeometry>
        </mxCell>
        <mxCell id="im4jYfLHDOuufb_Sz_qF-42" value="15:Thông báo không thành công" style="html=1;verticalAlign=bottom;endArrow=open;dashed=1;endSize=8;fontSize=12;exitX=0;exitY=0.654;exitDx=0;exitDy=0;exitPerimeter=0;" edge="1" source="im4jYfLHDOuufb_Sz_qF-32" parent="im4jYfLHDOuufb_Sz_qF-1">
          <mxGeometry relative="1" as="geometry">
            <mxPoint x="590" y="675" as="sourcePoint" />
            <mxPoint x="570" y="675" as="targetPoint" />
          </mxGeometry>
        </mxCell>
        <mxCell id="im4jYfLHDOuufb_Sz_qF-43" value="16: Thông báo sản phẩm đã tồn tại" style="html=1;verticalAlign=bottom;endArrow=open;dashed=1;endSize=8;fontSize=12;exitX=0.2;exitY=0.725;exitDx=0;exitDy=0;exitPerimeter=0;" edge="1" source="im4jYfLHDOuufb_Sz_qF-30" parent="im4jYfLHDOuufb_Sz_qF-1">
          <mxGeometry relative="1" as="geometry">
            <mxPoint x="590" y="675" as="sourcePoint" />
            <mxPoint x="220" y="696" as="targetPoint" />
          </mxGeometry>
        </mxCell>
        <mxCell id="im4jYfLHDOuufb_Sz_qF-44" value="17: Thông báo nhập thiếu" style="html=1;verticalAlign=bottom;endArrow=open;dashed=1;endSize=8;fontSize=12;entryX=1.5;entryY=0.833;entryDx=0;entryDy=0;entryPerimeter=0;" edge="1" target="im4jYfLHDOuufb_Sz_qF-30" parent="im4jYfLHDOuufb_Sz_qF-1">
          <mxGeometry relative="1" as="geometry">
            <mxPoint x="710" y="735" as="sourcePoint" />
            <mxPoint x="630" y="735" as="targetPoint" />
          </mxGeometry>
        </mxCell>
        <mxCell id="im4jYfLHDOuufb_Sz_qF-45" value="18: Thông báo nhập thiếu và yêu cầu nhập lại" style="html=1;verticalAlign=bottom;endArrow=open;dashed=1;endSize=8;fontSize=12;" edge="1" parent="im4jYfLHDOuufb_Sz_qF-1">
          <mxGeometry relative="1" as="geometry">
            <mxPoint x="555" y="755" as="sourcePoint" />
            <mxPoint x="220" y="755" as="targetPoint" />
          </mxGeometry>
        </mxCell>
        <mxCell id="im4jYfLHDOuufb_Sz_qF-46" value="[True]" style="text;html=1;align=center;verticalAlign=middle;resizable=0;points=[];autosize=1;strokeColor=none;fontSize=12;" vertex="1" parent="im4jYfLHDOuufb_Sz_qF-1">
          <mxGeometry x="150" y="515" width="50" height="20" as="geometry" />
        </mxCell>
        <mxCell id="im4jYfLHDOuufb_Sz_qF-47" value="[True]" style="text;html=1;align=center;verticalAlign=middle;resizable=0;points=[];autosize=1;strokeColor=none;fontSize=12;" vertex="1" parent="im4jYfLHDOuufb_Sz_qF-1">
          <mxGeometry x="160" y="595" width="50" height="20" as="geometry" />
        </mxCell>
        <mxCell id="im4jYfLHDOuufb_Sz_qF-48" value="[False]" style="text;html=1;align=center;verticalAlign=middle;resizable=0;points=[];autosize=1;strokeColor=none;fontSize=12;" vertex="1" parent="im4jYfLHDOuufb_Sz_qF-1">
          <mxGeometry x="160" y="655" width="50" height="20" as="geometry" />
        </mxCell>
        <mxCell id="im4jYfLHDOuufb_Sz_qF-49" value="[False]" style="text;html=1;align=center;verticalAlign=middle;resizable=0;points=[];autosize=1;strokeColor=none;fontSize=12;" vertex="1" parent="im4jYfLHDOuufb_Sz_qF-1">
          <mxGeometry x="130" y="735" width="50" height="20" as="geometry" />
        </mxCell>
        <mxCell id="im4jYfLHDOuufb_Sz_qF-50" value="" style="endArrow=none;dashed=1;html=1;dashPattern=1 3;strokeWidth=2;fontSize=12;exitX=0.001;exitY=0.524;exitDx=0;exitDy=0;exitPerimeter=0;entryX=0.999;entryY=0.524;entryDx=0;entryDy=0;entryPerimeter=0;" edge="1" parent="im4jYfLHDOuufb_Sz_qF-1">
          <mxGeometry width="50" height="50" relative="1" as="geometry">
            <mxPoint x="160.76" y="628.8399999999999" as="sourcePoint" />
            <mxPoint x="919.2399999999998" y="628.8399999999999" as="targetPoint" />
            <Array as="points">
              <mxPoint x="480" y="634" />
            </Array>
          </mxGeometry>
        </mxCell>
        <mxCell id="im4jYfLHDOuufb_Sz_qF-51" value="" style="endArrow=none;dashed=1;html=1;dashPattern=1 3;strokeWidth=2;fontSize=12;exitX=-0.003;exitY=0.592;exitDx=0;exitDy=0;exitPerimeter=0;entryX=0.999;entryY=0.592;entryDx=0;entryDy=0;entryPerimeter=0;" edge="1" parent="im4jYfLHDOuufb_Sz_qF-1">
          <mxGeometry width="50" height="50" relative="1" as="geometry">
            <mxPoint x="117.48000000000002" y="715.8800000000001" as="sourcePoint" />
            <mxPoint x="959.1599999999999" y="715.8800000000001" as="targetPoint" />
          </mxGeometry>
        </mxCell>
        <mxCell id="im4jYfLHDOuufb_Sz_qF-53" value="1:Chọn &quot;Thêm SP&quot;" style="html=1;verticalAlign=bottom;endArrow=block;fontSize=12;" edge="1" parent="im4jYfLHDOuufb_Sz_qF-1">
          <mxGeometry width="80" relative="1" as="geometry">
            <mxPoint x="220" y="205" as="sourcePoint" />
            <mxPoint x="385" y="205" as="targetPoint" />
          </mxGeometry>
        </mxCell>
        <mxCell id="im4jYfLHDOuufb_Sz_qF-54" value="sd Thêm SP" style="shape=umlFrame;whiteSpace=wrap;html=1;fontSize=12;" vertex="1" parent="im4jYfLHDOuufb_Sz_qF-1">
          <mxGeometry x="40" width="1000" height="960" as="geometry" />
        </mxCell>
        <mxCell id="im4jYfLHDOuufb_Sz_qF-55" value="alt Chọn Hủy" style="shape=umlFrame;whiteSpace=wrap;html=1;fontSize=12;" vertex="1" parent="im4jYfLHDOuufb_Sz_qF-1">
          <mxGeometry x="80" y="280" width="920" height="640" as="geometry" />
        </mxCell>
        <mxCell id="im4jYfLHDOuufb_Sz_qF-56" value="" style="endArrow=none;dashed=1;html=1;dashPattern=1 3;strokeWidth=2;fontSize=12;exitX=0.001;exitY=0.158;exitDx=0;exitDy=0;exitPerimeter=0;entryX=1.007;entryY=0.155;entryDx=0;entryDy=0;entryPerimeter=0;" edge="1" parent="im4jYfLHDOuufb_Sz_qF-1" source="im4jYfLHDOuufb_Sz_qF-55" target="im4jYfLHDOuufb_Sz_qF-55">
          <mxGeometry width="50" height="50" relative="1" as="geometry">
            <mxPoint x="540" y="530" as="sourcePoint" />
            <mxPoint x="590" y="480" as="targetPoint" />
          </mxGeometry>
        </mxCell>
        <mxCell id="im4jYfLHDOuufb_Sz_qF-57" value="alt Nhập thiếu" style="shape=umlFrame;whiteSpace=wrap;html=1;fontSize=12;" vertex="1" parent="im4jYfLHDOuufb_Sz_qF-1">
          <mxGeometry x="115" y="480" width="850" height="420" as="geometry" />
        </mxCell>
        <mxCell id="im4jYfLHDOuufb_Sz_qF-58" value="alt KT thông tin" style="shape=umlFrame;whiteSpace=wrap;html=1;fontSize=12;" vertex="1" parent="im4jYfLHDOuufb_Sz_qF-1">
          <mxGeometry x="160" y="540" width="760" height="170" as="geometry" />
        </mxCell>
      </root>
    </mxGraphModel>
  </diagram>
  <diagram id="EgI7Pzw_CeJJvhOEcn_j" name="Page-6">
    <mxGraphModel dx="1102" dy="557" grid="1" gridSize="10" guides="1" tooltips="1" connect="1" arrows="1" fold="1" page="1" pageScale="1" pageWidth="1169" pageHeight="1654" math="0" shadow="0">
      <root>
        <mxCell id="zNZp7RC_gaE6xBQp1elW-0" />
        <mxCell id="zNZp7RC_gaE6xBQp1elW-1" parent="zNZp7RC_gaE6xBQp1elW-0" />
        <mxCell id="zNZp7RC_gaE6xBQp1elW-2" value="Actor" style="shape=umlActor;verticalLabelPosition=bottom;verticalAlign=top;html=1;outlineConnect=0;" vertex="1" parent="zNZp7RC_gaE6xBQp1elW-1">
          <mxGeometry x="210" y="105" width="30" height="60" as="geometry" />
        </mxCell>
        <mxCell id="zNZp7RC_gaE6xBQp1elW-3" value="" style="endArrow=none;dashed=1;html=1;" edge="1" target="zNZp7RC_gaE6xBQp1elW-2" parent="zNZp7RC_gaE6xBQp1elW-1">
          <mxGeometry width="50" height="50" relative="1" as="geometry">
            <mxPoint x="225" y="390" as="sourcePoint" />
            <mxPoint x="580" y="355" as="targetPoint" />
            <Array as="points">
              <mxPoint x="225" y="250" />
            </Array>
          </mxGeometry>
        </mxCell>
        <mxCell id="zNZp7RC_gaE6xBQp1elW-4" value=":Quản lý,nhân viên&lt;br style=&quot;font-size: 12px;&quot;&gt;" style="edgeLabel;html=1;align=center;verticalAlign=middle;resizable=0;points=[];fontStyle=1;fontSize=12;" vertex="1" connectable="0" parent="zNZp7RC_gaE6xBQp1elW-3">
          <mxGeometry x="0.922" y="3" relative="1" as="geometry">
            <mxPoint x="3" y="1" as="offset" />
          </mxGeometry>
        </mxCell>
        <mxCell id="zNZp7RC_gaE6xBQp1elW-5" value="" style="shape=umlBoundary;whiteSpace=wrap;html=1;fontSize=12;" vertex="1" parent="zNZp7RC_gaE6xBQp1elW-1">
          <mxGeometry x="360" y="105" width="70" height="50" as="geometry" />
        </mxCell>
        <mxCell id="zNZp7RC_gaE6xBQp1elW-6" value=":GD_QLDonHang" style="text;html=1;align=center;verticalAlign=middle;resizable=0;points=[];autosize=1;strokeColor=none;fontSize=12;" vertex="1" parent="zNZp7RC_gaE6xBQp1elW-1">
          <mxGeometry x="345" y="165" width="110" height="20" as="geometry" />
        </mxCell>
        <mxCell id="zNZp7RC_gaE6xBQp1elW-7" value="" style="shape=umlBoundary;whiteSpace=wrap;html=1;fontSize=12;" vertex="1" parent="zNZp7RC_gaE6xBQp1elW-1">
          <mxGeometry x="360" y="105" width="70" height="50" as="geometry" />
        </mxCell>
        <mxCell id="zNZp7RC_gaE6xBQp1elW-8" value="" style="ellipse;shape=umlEntity;whiteSpace=wrap;html=1;fontSize=12;" vertex="1" parent="zNZp7RC_gaE6xBQp1elW-1">
          <mxGeometry x="700" y="105" width="60" height="50" as="geometry" />
        </mxCell>
        <mxCell id="zNZp7RC_gaE6xBQp1elW-9" value="" style="ellipse;shape=umlControl;whiteSpace=wrap;html=1;fontSize=12;" vertex="1" parent="zNZp7RC_gaE6xBQp1elW-1">
          <mxGeometry x="540" y="100" width="60" height="60" as="geometry" />
        </mxCell>
        <mxCell id="zNZp7RC_gaE6xBQp1elW-10" value=":CT_QL DonHang" style="text;html=1;align=center;verticalAlign=middle;resizable=0;points=[];autosize=1;strokeColor=none;fontSize=12;" vertex="1" parent="zNZp7RC_gaE6xBQp1elW-1">
          <mxGeometry x="515" y="165" width="110" height="20" as="geometry" />
        </mxCell>
        <mxCell id="zNZp7RC_gaE6xBQp1elW-11" value=":DonHang" style="text;html=1;align=center;verticalAlign=middle;resizable=0;points=[];autosize=1;strokeColor=none;fontSize=12;" vertex="1" parent="zNZp7RC_gaE6xBQp1elW-1">
          <mxGeometry x="700" y="165" width="70" height="20" as="geometry" />
        </mxCell>
        <mxCell id="zNZp7RC_gaE6xBQp1elW-12" value="" style="endArrow=none;dashed=1;html=1;fontSize=12;" edge="1" target="zNZp7RC_gaE6xBQp1elW-6" parent="zNZp7RC_gaE6xBQp1elW-1">
          <mxGeometry width="50" height="50" relative="1" as="geometry">
            <mxPoint x="400" y="390" as="sourcePoint" />
            <mxPoint x="580" y="355" as="targetPoint" />
          </mxGeometry>
        </mxCell>
        <mxCell id="zNZp7RC_gaE6xBQp1elW-13" value="" style="endArrow=none;dashed=1;html=1;fontSize=12;entryX=0.471;entryY=1.15;entryDx=0;entryDy=0;entryPerimeter=0;" edge="1" target="zNZp7RC_gaE6xBQp1elW-10" parent="zNZp7RC_gaE6xBQp1elW-1">
          <mxGeometry width="50" height="50" relative="1" as="geometry">
            <mxPoint x="567" y="390" as="sourcePoint" />
            <mxPoint x="580" y="355" as="targetPoint" />
          </mxGeometry>
        </mxCell>
        <mxCell id="zNZp7RC_gaE6xBQp1elW-14" value="" style="endArrow=none;dashed=1;html=1;fontSize=12;entryX=0.471;entryY=1;entryDx=0;entryDy=0;entryPerimeter=0;" edge="1" target="zNZp7RC_gaE6xBQp1elW-11" parent="zNZp7RC_gaE6xBQp1elW-1">
          <mxGeometry width="50" height="50" relative="1" as="geometry">
            <mxPoint x="733" y="390" as="sourcePoint" />
            <mxPoint x="580" y="355" as="targetPoint" />
          </mxGeometry>
        </mxCell>
        <mxCell id="zNZp7RC_gaE6xBQp1elW-15" value="1: Chọn &quot;QL đơn hàng&quot;" style="html=1;verticalAlign=bottom;startArrow=oval;startFill=1;endArrow=block;startSize=8;fontSize=12;" edge="1" target="zNZp7RC_gaE6xBQp1elW-16" parent="zNZp7RC_gaE6xBQp1elW-1">
          <mxGeometry width="60" relative="1" as="geometry">
            <mxPoint x="230" y="250" as="sourcePoint" />
            <mxPoint x="400" y="250" as="targetPoint" />
          </mxGeometry>
        </mxCell>
        <mxCell id="zNZp7RC_gaE6xBQp1elW-16" value="" style="html=1;points=[];perimeter=orthogonalPerimeter;fontSize=12;" vertex="1" parent="zNZp7RC_gaE6xBQp1elW-1">
          <mxGeometry x="395" y="250" width="10" height="120" as="geometry" />
        </mxCell>
        <mxCell id="zNZp7RC_gaE6xBQp1elW-17" value="2: Gửi yêu cầu QLDH" style="html=1;verticalAlign=bottom;endArrow=block;fontSize=12;exitX=1.3;exitY=0.213;exitDx=0;exitDy=0;exitPerimeter=0;" edge="1" source="zNZp7RC_gaE6xBQp1elW-16" target="zNZp7RC_gaE6xBQp1elW-18" parent="zNZp7RC_gaE6xBQp1elW-1">
          <mxGeometry width="80" relative="1" as="geometry">
            <mxPoint x="560" y="420" as="sourcePoint" />
            <mxPoint x="560" y="267" as="targetPoint" />
          </mxGeometry>
        </mxCell>
        <mxCell id="zNZp7RC_gaE6xBQp1elW-18" value="" style="html=1;points=[];perimeter=orthogonalPerimeter;fontSize=12;" vertex="1" parent="zNZp7RC_gaE6xBQp1elW-1">
          <mxGeometry x="565" y="270" width="10" height="90" as="geometry" />
        </mxCell>
        <mxCell id="zNZp7RC_gaE6xBQp1elW-19" value="3: Lấy dữ liệu" style="html=1;verticalAlign=bottom;endArrow=block;fontSize=12;exitX=1.1;exitY=0.225;exitDx=0;exitDy=0;exitPerimeter=0;" edge="1" source="zNZp7RC_gaE6xBQp1elW-18" target="zNZp7RC_gaE6xBQp1elW-20" parent="zNZp7RC_gaE6xBQp1elW-1">
          <mxGeometry width="80" relative="1" as="geometry">
            <mxPoint x="560" y="420" as="sourcePoint" />
            <mxPoint x="730" y="288" as="targetPoint" />
          </mxGeometry>
        </mxCell>
        <mxCell id="zNZp7RC_gaE6xBQp1elW-20" value="" style="html=1;points=[];perimeter=orthogonalPerimeter;fontSize=12;" vertex="1" parent="zNZp7RC_gaE6xBQp1elW-1">
          <mxGeometry x="730" y="290" width="10" height="50" as="geometry" />
        </mxCell>
        <mxCell id="zNZp7RC_gaE6xBQp1elW-21" value="4: Trả về thông tin" style="html=1;verticalAlign=bottom;endArrow=open;dashed=1;endSize=8;fontSize=12;exitX=0;exitY=0.78;exitDx=0;exitDy=0;exitPerimeter=0;" edge="1" source="zNZp7RC_gaE6xBQp1elW-20" parent="zNZp7RC_gaE6xBQp1elW-1">
          <mxGeometry relative="1" as="geometry">
            <mxPoint x="640" y="420" as="sourcePoint" />
            <mxPoint x="578" y="330" as="targetPoint" />
          </mxGeometry>
        </mxCell>
        <mxCell id="zNZp7RC_gaE6xBQp1elW-22" value="5: Hiển thị thông tin ra GD&lt;br&gt;QLDH" style="html=1;verticalAlign=bottom;endArrow=open;dashed=1;endSize=8;fontSize=12;entryX=1;entryY=0.842;entryDx=0;entryDy=0;entryPerimeter=0;" edge="1" target="zNZp7RC_gaE6xBQp1elW-16" parent="zNZp7RC_gaE6xBQp1elW-1">
          <mxGeometry relative="1" as="geometry">
            <mxPoint x="560" y="350" as="sourcePoint" />
            <mxPoint x="480" y="340" as="targetPoint" />
            <Array as="points">
              <mxPoint x="490" y="350" />
            </Array>
          </mxGeometry>
        </mxCell>
        <mxCell id="fvyRo36XTxubDBzdSI1i-0" value="sd QL Đơn hàng" style="shape=umlFrame;whiteSpace=wrap;html=1;fontSize=12;" vertex="1" parent="zNZp7RC_gaE6xBQp1elW-1">
          <mxGeometry x="80" y="80" width="760" height="360" as="geometry" />
        </mxCell>
      </root>
    </mxGraphModel>
  </diagram>
  <diagram id="xdWy9iZQ8XzrcKcaBEgX" name="Page-7">
    <mxGraphModel dx="1102" dy="557" grid="1" gridSize="10" guides="1" tooltips="1" connect="1" arrows="1" fold="1" page="1" pageScale="1" pageWidth="1169" pageHeight="1654" math="0" shadow="0">
      <root>
        <mxCell id="ZOCj2k4V7LKqSmqRWgyW-0" />
        <mxCell id="ZOCj2k4V7LKqSmqRWgyW-1" parent="ZOCj2k4V7LKqSmqRWgyW-0" />
        <mxCell id="ZOCj2k4V7LKqSmqRWgyW-2" value="Actor" style="shape=umlActor;verticalLabelPosition=bottom;verticalAlign=top;html=1;outlineConnect=0;" vertex="1" parent="ZOCj2k4V7LKqSmqRWgyW-1">
          <mxGeometry x="340" y="65" width="30" height="60" as="geometry" />
        </mxCell>
        <mxCell id="ZOCj2k4V7LKqSmqRWgyW-3" value="" style="endArrow=none;dashed=1;html=1;" edge="1" target="ZOCj2k4V7LKqSmqRWgyW-2" parent="ZOCj2k4V7LKqSmqRWgyW-1">
          <mxGeometry width="50" height="50" relative="1" as="geometry">
            <mxPoint x="355" y="530" as="sourcePoint" />
            <mxPoint x="710" y="315" as="targetPoint" />
          </mxGeometry>
        </mxCell>
        <mxCell id="ZOCj2k4V7LKqSmqRWgyW-4" value=":Quản lý,nhân viên&lt;br style=&quot;font-size: 12px;&quot;&gt;" style="edgeLabel;html=1;align=center;verticalAlign=middle;resizable=0;points=[];fontStyle=1;fontSize=12;" vertex="1" connectable="0" parent="ZOCj2k4V7LKqSmqRWgyW-3">
          <mxGeometry x="0.922" y="3" relative="1" as="geometry">
            <mxPoint x="3" y="-6" as="offset" />
          </mxGeometry>
        </mxCell>
        <mxCell id="ZOCj2k4V7LKqSmqRWgyW-5" value="" style="shape=umlBoundary;whiteSpace=wrap;html=1;fontSize=12;" vertex="1" parent="ZOCj2k4V7LKqSmqRWgyW-1">
          <mxGeometry x="490" y="65" width="70" height="50" as="geometry" />
        </mxCell>
        <mxCell id="ZOCj2k4V7LKqSmqRWgyW-6" value=":GD_QLDonHang" style="text;html=1;align=center;verticalAlign=middle;resizable=0;points=[];autosize=1;strokeColor=none;fontSize=12;" vertex="1" parent="ZOCj2k4V7LKqSmqRWgyW-1">
          <mxGeometry x="475" y="125" width="110" height="20" as="geometry" />
        </mxCell>
        <mxCell id="ZOCj2k4V7LKqSmqRWgyW-7" value="" style="shape=umlBoundary;whiteSpace=wrap;html=1;fontSize=12;" vertex="1" parent="ZOCj2k4V7LKqSmqRWgyW-1">
          <mxGeometry x="490" y="65" width="70" height="50" as="geometry" />
        </mxCell>
        <mxCell id="ZOCj2k4V7LKqSmqRWgyW-8" value="" style="ellipse;shape=umlEntity;whiteSpace=wrap;html=1;fontSize=12;" vertex="1" parent="ZOCj2k4V7LKqSmqRWgyW-1">
          <mxGeometry x="890" y="70" width="60" height="50" as="geometry" />
        </mxCell>
        <mxCell id="ZOCj2k4V7LKqSmqRWgyW-9" value="" style="ellipse;shape=umlControl;whiteSpace=wrap;html=1;fontSize=12;" vertex="1" parent="ZOCj2k4V7LKqSmqRWgyW-1">
          <mxGeometry x="700" y="60" width="60" height="60" as="geometry" />
        </mxCell>
        <mxCell id="ZOCj2k4V7LKqSmqRWgyW-10" value=":Giao hàng" style="text;html=1;align=center;verticalAlign=middle;resizable=0;points=[];autosize=1;strokeColor=none;fontSize=12;" vertex="1" parent="ZOCj2k4V7LKqSmqRWgyW-1">
          <mxGeometry x="700" y="125" width="70" height="20" as="geometry" />
        </mxCell>
        <mxCell id="ZOCj2k4V7LKqSmqRWgyW-11" value=":Đơn hàng" style="text;html=1;align=center;verticalAlign=middle;resizable=0;points=[];autosize=1;strokeColor=none;fontSize=12;" vertex="1" parent="ZOCj2k4V7LKqSmqRWgyW-1">
          <mxGeometry x="890" y="125" width="70" height="20" as="geometry" />
        </mxCell>
        <mxCell id="ZOCj2k4V7LKqSmqRWgyW-12" value="" style="endArrow=none;dashed=1;html=1;fontSize=12;" edge="1" target="ZOCj2k4V7LKqSmqRWgyW-6" parent="ZOCj2k4V7LKqSmqRWgyW-1">
          <mxGeometry width="50" height="50" relative="1" as="geometry">
            <mxPoint x="530" y="530" as="sourcePoint" />
            <mxPoint x="710" y="315" as="targetPoint" />
          </mxGeometry>
        </mxCell>
        <mxCell id="ZOCj2k4V7LKqSmqRWgyW-13" value="" style="endArrow=none;dashed=1;html=1;fontSize=12;entryX=0.471;entryY=1.15;entryDx=0;entryDy=0;entryPerimeter=0;" edge="1" target="ZOCj2k4V7LKqSmqRWgyW-10" parent="ZOCj2k4V7LKqSmqRWgyW-1">
          <mxGeometry width="50" height="50" relative="1" as="geometry">
            <mxPoint x="733" y="530" as="sourcePoint" />
            <mxPoint x="710" y="315" as="targetPoint" />
          </mxGeometry>
        </mxCell>
        <mxCell id="ZOCj2k4V7LKqSmqRWgyW-14" value="" style="endArrow=none;dashed=1;html=1;fontSize=12;entryX=0.471;entryY=1;entryDx=0;entryDy=0;entryPerimeter=0;" edge="1" target="ZOCj2k4V7LKqSmqRWgyW-11" parent="ZOCj2k4V7LKqSmqRWgyW-1">
          <mxGeometry width="50" height="50" relative="1" as="geometry">
            <mxPoint x="923" y="530" as="sourcePoint" />
            <mxPoint x="710" y="315" as="targetPoint" />
          </mxGeometry>
        </mxCell>
        <mxCell id="ZOCj2k4V7LKqSmqRWgyW-15" value="" style="html=1;points=[];perimeter=orthogonalPerimeter;fontSize=12;" vertex="1" parent="ZOCj2k4V7LKqSmqRWgyW-1">
          <mxGeometry x="525" y="195" width="10" height="30" as="geometry" />
        </mxCell>
        <mxCell id="ZOCj2k4V7LKqSmqRWgyW-16" value="1:Chọn &quot;Giao hàng&quot;" style="html=1;verticalAlign=bottom;startArrow=oval;endArrow=block;startSize=8;fontSize=12;" edge="1" parent="ZOCj2k4V7LKqSmqRWgyW-1">
          <mxGeometry relative="1" as="geometry">
            <mxPoint x="355" y="195" as="sourcePoint" />
            <mxPoint x="525" y="195" as="targetPoint" />
          </mxGeometry>
        </mxCell>
        <mxCell id="ZOCj2k4V7LKqSmqRWgyW-17" value="" style="html=1;points=[];perimeter=orthogonalPerimeter;fontSize=12;" vertex="1" parent="ZOCj2k4V7LKqSmqRWgyW-1">
          <mxGeometry x="725" y="215" width="10" height="55" as="geometry" />
        </mxCell>
        <mxCell id="ZOCj2k4V7LKqSmqRWgyW-18" value="2:Gửi yêu cầu giao hàng" style="html=1;verticalAlign=bottom;endArrow=block;fontSize=12;entryX=0.1;entryY=0.025;entryDx=0;entryDy=0;entryPerimeter=0;exitX=1.1;exitY=0.733;exitDx=0;exitDy=0;exitPerimeter=0;" edge="1" source="ZOCj2k4V7LKqSmqRWgyW-15" target="ZOCj2k4V7LKqSmqRWgyW-17" parent="ZOCj2k4V7LKqSmqRWgyW-1">
          <mxGeometry x="-0.0221" y="6" width="80" relative="1" as="geometry">
            <mxPoint x="540" y="217" as="sourcePoint" />
            <mxPoint x="720" y="325" as="targetPoint" />
            <mxPoint as="offset" />
          </mxGeometry>
        </mxCell>
        <mxCell id="ZOCj2k4V7LKqSmqRWgyW-19" value="[True]" style="text;html=1;align=center;verticalAlign=middle;resizable=0;points=[];autosize=1;strokeColor=none;fontSize=12;" vertex="1" parent="ZOCj2k4V7LKqSmqRWgyW-1">
          <mxGeometry x="270" y="325" width="50" height="20" as="geometry" />
        </mxCell>
        <mxCell id="ZOCj2k4V7LKqSmqRWgyW-20" value="4:Bấm chọn &quot;Hủy&quot;" style="html=1;verticalAlign=bottom;endArrow=block;fontSize=12;entryX=0;entryY=0;entryDx=0;entryDy=0;entryPerimeter=0;" edge="1" target="ZOCj2k4V7LKqSmqRWgyW-21" parent="ZOCj2k4V7LKqSmqRWgyW-1">
          <mxGeometry width="80" relative="1" as="geometry">
            <mxPoint x="360" y="305" as="sourcePoint" />
            <mxPoint x="700" y="305" as="targetPoint" />
          </mxGeometry>
        </mxCell>
        <mxCell id="ZOCj2k4V7LKqSmqRWgyW-21" value="" style="html=1;points=[];perimeter=orthogonalPerimeter;fontSize=12;" vertex="1" parent="ZOCj2k4V7LKqSmqRWgyW-1">
          <mxGeometry x="730" y="305" width="10" height="40" as="geometry" />
        </mxCell>
        <mxCell id="ZOCj2k4V7LKqSmqRWgyW-22" value="5:Trở về GD QLDH" style="html=1;verticalAlign=bottom;endArrow=open;dashed=1;endSize=8;fontSize=12;exitX=0.1;exitY=0.975;exitDx=0;exitDy=0;exitPerimeter=0;" edge="1" source="ZOCj2k4V7LKqSmqRWgyW-21" parent="ZOCj2k4V7LKqSmqRWgyW-1">
          <mxGeometry relative="1" as="geometry">
            <mxPoint x="720" y="265" as="sourcePoint" />
            <mxPoint x="530" y="345" as="targetPoint" />
          </mxGeometry>
        </mxCell>
        <mxCell id="ZOCj2k4V7LKqSmqRWgyW-23" value="[False]" style="text;html=1;align=center;verticalAlign=middle;resizable=0;points=[];autosize=1;strokeColor=none;fontSize=12;" vertex="1" parent="ZOCj2k4V7LKqSmqRWgyW-1">
          <mxGeometry x="270" y="405" width="50" height="20" as="geometry" />
        </mxCell>
        <mxCell id="ZOCj2k4V7LKqSmqRWgyW-24" value="6: Bấm &quot;Đồng ý&quot;" style="html=1;verticalAlign=bottom;endArrow=block;fontSize=12;" edge="1" target="ZOCj2k4V7LKqSmqRWgyW-25" parent="ZOCj2k4V7LKqSmqRWgyW-1">
          <mxGeometry width="80" relative="1" as="geometry">
            <mxPoint x="360" y="410" as="sourcePoint" />
            <mxPoint x="700" y="410" as="targetPoint" />
          </mxGeometry>
        </mxCell>
        <mxCell id="ZOCj2k4V7LKqSmqRWgyW-25" value="" style="html=1;points=[];perimeter=orthogonalPerimeter;fontSize=12;" vertex="1" parent="ZOCj2k4V7LKqSmqRWgyW-1">
          <mxGeometry x="730" y="400" width="10" height="80" as="geometry" />
        </mxCell>
        <mxCell id="ZOCj2k4V7LKqSmqRWgyW-26" value="7: Đơn hàng chuyển sang trạng&lt;br&gt;thái giao hàng" style="html=1;verticalAlign=bottom;endArrow=block;fontSize=12;entryX=0.1;entryY=0.063;entryDx=0;entryDy=0;entryPerimeter=0;" edge="1" target="ZOCj2k4V7LKqSmqRWgyW-27" parent="ZOCj2k4V7LKqSmqRWgyW-1">
          <mxGeometry width="80" relative="1" as="geometry">
            <mxPoint x="740" y="414.5" as="sourcePoint" />
            <mxPoint x="920" y="415" as="targetPoint" />
          </mxGeometry>
        </mxCell>
        <mxCell id="ZOCj2k4V7LKqSmqRWgyW-27" value="" style="html=1;points=[];perimeter=orthogonalPerimeter;fontSize=12;" vertex="1" parent="ZOCj2k4V7LKqSmqRWgyW-1">
          <mxGeometry x="920" y="410" width="10" height="60" as="geometry" />
        </mxCell>
        <mxCell id="ZOCj2k4V7LKqSmqRWgyW-28" value="8: Thông báo thành công" style="html=1;verticalAlign=bottom;endArrow=open;dashed=1;endSize=8;fontSize=12;" edge="1" target="ZOCj2k4V7LKqSmqRWgyW-25" parent="ZOCj2k4V7LKqSmqRWgyW-1">
          <mxGeometry relative="1" as="geometry">
            <mxPoint x="918" y="450" as="sourcePoint" />
            <mxPoint x="680" y="360" as="targetPoint" />
            <Array as="points">
              <mxPoint x="860" y="450" />
            </Array>
          </mxGeometry>
        </mxCell>
        <mxCell id="ZOCj2k4V7LKqSmqRWgyW-29" value="9: Quay lại giao diện QLDH" style="html=1;verticalAlign=bottom;endArrow=open;dashed=1;endSize=8;fontSize=12;exitX=-0.1;exitY=0.825;exitDx=0;exitDy=0;exitPerimeter=0;" edge="1" source="ZOCj2k4V7LKqSmqRWgyW-25" parent="ZOCj2k4V7LKqSmqRWgyW-1">
          <mxGeometry relative="1" as="geometry">
            <mxPoint x="760" y="360" as="sourcePoint" />
            <mxPoint x="530" y="466" as="targetPoint" />
          </mxGeometry>
        </mxCell>
        <mxCell id="ZOCj2k4V7LKqSmqRWgyW-30" value="10: Thông báo thành công" style="html=1;verticalAlign=bottom;endArrow=open;dashed=1;endSize=8;fontSize=12;" edge="1" parent="ZOCj2k4V7LKqSmqRWgyW-1">
          <mxGeometry relative="1" as="geometry">
            <mxPoint x="530" y="490" as="sourcePoint" />
            <mxPoint x="360" y="490" as="targetPoint" />
          </mxGeometry>
        </mxCell>
        <mxCell id="ZOCj2k4V7LKqSmqRWgyW-31" value="3: Hiển thị thông báo &quot;Đồng ý&quot; hoặc &quot;Hủy&quot;" style="html=1;verticalAlign=bottom;endArrow=open;dashed=1;endSize=8;fontSize=12;exitX=0.5;exitY=0.636;exitDx=0;exitDy=0;exitPerimeter=0;" edge="1" source="ZOCj2k4V7LKqSmqRWgyW-17" parent="ZOCj2k4V7LKqSmqRWgyW-1">
          <mxGeometry relative="1" as="geometry">
            <mxPoint x="760" y="370" as="sourcePoint" />
            <mxPoint x="360" y="250" as="targetPoint" />
          </mxGeometry>
        </mxCell>
        <mxCell id="A9nI6-OTfNq5A2bbVEZ4-2" value="sd Giao hàng" style="shape=umlFrame;whiteSpace=wrap;html=1;fontSize=12;" vertex="1" parent="ZOCj2k4V7LKqSmqRWgyW-1">
          <mxGeometry x="200" y="40" width="840" height="560" as="geometry" />
        </mxCell>
        <mxCell id="A9nI6-OTfNq5A2bbVEZ4-3" value="alt chọn &quot;Hủy&quot;" style="shape=umlFrame;whiteSpace=wrap;html=1;fontSize=12;" vertex="1" parent="ZOCj2k4V7LKqSmqRWgyW-1">
          <mxGeometry x="240" y="280" width="760" height="280" as="geometry" />
        </mxCell>
        <mxCell id="A9nI6-OTfNq5A2bbVEZ4-4" value="" style="endArrow=none;dashed=1;html=1;dashPattern=1 3;strokeWidth=2;fontSize=12;exitX=-0.004;exitY=0.354;exitDx=0;exitDy=0;exitPerimeter=0;entryX=1.005;entryY=0.336;entryDx=0;entryDy=0;entryPerimeter=0;" edge="1" parent="ZOCj2k4V7LKqSmqRWgyW-1" source="A9nI6-OTfNq5A2bbVEZ4-3" target="A9nI6-OTfNq5A2bbVEZ4-3">
          <mxGeometry width="50" height="50" relative="1" as="geometry">
            <mxPoint x="540" y="520" as="sourcePoint" />
            <mxPoint x="590" y="470" as="targetPoint" />
          </mxGeometry>
        </mxCell>
      </root>
    </mxGraphModel>
  </diagram>
  <diagram id="cXwwL7SC9OmDIR6lcgiB" name="Page-8">
    <mxGraphModel dx="1102" dy="557" grid="1" gridSize="10" guides="1" tooltips="1" connect="1" arrows="1" fold="1" page="1" pageScale="1" pageWidth="1169" pageHeight="1654" math="0" shadow="0">
      <root>
        <mxCell id="vJz7wqSFiuFJ8WQOTCKR-0" />
        <mxCell id="vJz7wqSFiuFJ8WQOTCKR-1" parent="vJz7wqSFiuFJ8WQOTCKR-0" />
        <mxCell id="pPNwk52n2RvMzLBVsfBl-0" value="Actor" style="shape=umlActor;verticalLabelPosition=bottom;verticalAlign=top;html=1;outlineConnect=0;" vertex="1" parent="vJz7wqSFiuFJ8WQOTCKR-1">
          <mxGeometry x="190" y="85" width="30" height="60" as="geometry" />
        </mxCell>
        <mxCell id="pPNwk52n2RvMzLBVsfBl-1" value="" style="endArrow=none;dashed=1;html=1;" edge="1" target="pPNwk52n2RvMzLBVsfBl-0" parent="vJz7wqSFiuFJ8WQOTCKR-1">
          <mxGeometry width="50" height="50" relative="1" as="geometry">
            <mxPoint x="205" y="370" as="sourcePoint" />
            <mxPoint x="560" y="335" as="targetPoint" />
            <Array as="points">
              <mxPoint x="205" y="230" />
            </Array>
          </mxGeometry>
        </mxCell>
        <mxCell id="pPNwk52n2RvMzLBVsfBl-2" value=":Khách hàng" style="edgeLabel;html=1;align=center;verticalAlign=middle;resizable=0;points=[];fontStyle=1;fontSize=12;" vertex="1" connectable="0" parent="pPNwk52n2RvMzLBVsfBl-1">
          <mxGeometry x="0.922" y="3" relative="1" as="geometry">
            <mxPoint x="3" y="1" as="offset" />
          </mxGeometry>
        </mxCell>
        <mxCell id="pPNwk52n2RvMzLBVsfBl-3" value="" style="shape=umlBoundary;whiteSpace=wrap;html=1;fontSize=12;" vertex="1" parent="vJz7wqSFiuFJ8WQOTCKR-1">
          <mxGeometry x="340" y="85" width="70" height="50" as="geometry" />
        </mxCell>
        <mxCell id="pPNwk52n2RvMzLBVsfBl-4" value=":GD_DonHang" style="text;html=1;align=center;verticalAlign=middle;resizable=0;points=[];autosize=1;strokeColor=none;fontSize=12;" vertex="1" parent="vJz7wqSFiuFJ8WQOTCKR-1">
          <mxGeometry x="335" y="145" width="90" height="20" as="geometry" />
        </mxCell>
        <mxCell id="pPNwk52n2RvMzLBVsfBl-5" value="" style="shape=umlBoundary;whiteSpace=wrap;html=1;fontSize=12;" vertex="1" parent="vJz7wqSFiuFJ8WQOTCKR-1">
          <mxGeometry x="340" y="85" width="70" height="50" as="geometry" />
        </mxCell>
        <mxCell id="pPNwk52n2RvMzLBVsfBl-6" value="" style="ellipse;shape=umlEntity;whiteSpace=wrap;html=1;fontSize=12;" vertex="1" parent="vJz7wqSFiuFJ8WQOTCKR-1">
          <mxGeometry x="680" y="85" width="60" height="50" as="geometry" />
        </mxCell>
        <mxCell id="pPNwk52n2RvMzLBVsfBl-7" value="" style="ellipse;shape=umlControl;whiteSpace=wrap;html=1;fontSize=12;" vertex="1" parent="vJz7wqSFiuFJ8WQOTCKR-1">
          <mxGeometry x="520" y="80" width="60" height="60" as="geometry" />
        </mxCell>
        <mxCell id="pPNwk52n2RvMzLBVsfBl-8" value=":CT_DonHang" style="text;html=1;align=center;verticalAlign=middle;resizable=0;points=[];autosize=1;strokeColor=none;fontSize=12;" vertex="1" parent="vJz7wqSFiuFJ8WQOTCKR-1">
          <mxGeometry x="505" y="145" width="90" height="20" as="geometry" />
        </mxCell>
        <mxCell id="pPNwk52n2RvMzLBVsfBl-9" value=":Đơn hàng" style="text;html=1;align=center;verticalAlign=middle;resizable=0;points=[];autosize=1;strokeColor=none;fontSize=12;" vertex="1" parent="vJz7wqSFiuFJ8WQOTCKR-1">
          <mxGeometry x="680" y="145" width="70" height="20" as="geometry" />
        </mxCell>
        <mxCell id="pPNwk52n2RvMzLBVsfBl-10" value="" style="endArrow=none;dashed=1;html=1;fontSize=12;" edge="1" target="pPNwk52n2RvMzLBVsfBl-4" parent="vJz7wqSFiuFJ8WQOTCKR-1">
          <mxGeometry width="50" height="50" relative="1" as="geometry">
            <mxPoint x="380" y="370" as="sourcePoint" />
            <mxPoint x="560" y="335" as="targetPoint" />
          </mxGeometry>
        </mxCell>
        <mxCell id="pPNwk52n2RvMzLBVsfBl-11" value="" style="endArrow=none;dashed=1;html=1;fontSize=12;entryX=0.471;entryY=1.15;entryDx=0;entryDy=0;entryPerimeter=0;" edge="1" target="pPNwk52n2RvMzLBVsfBl-8" parent="vJz7wqSFiuFJ8WQOTCKR-1">
          <mxGeometry width="50" height="50" relative="1" as="geometry">
            <mxPoint x="547" y="370" as="sourcePoint" />
            <mxPoint x="560" y="335" as="targetPoint" />
          </mxGeometry>
        </mxCell>
        <mxCell id="pPNwk52n2RvMzLBVsfBl-12" value="" style="endArrow=none;dashed=1;html=1;fontSize=12;entryX=0.471;entryY=1;entryDx=0;entryDy=0;entryPerimeter=0;" edge="1" target="pPNwk52n2RvMzLBVsfBl-9" parent="vJz7wqSFiuFJ8WQOTCKR-1">
          <mxGeometry width="50" height="50" relative="1" as="geometry">
            <mxPoint x="713" y="370" as="sourcePoint" />
            <mxPoint x="560" y="335" as="targetPoint" />
          </mxGeometry>
        </mxCell>
        <mxCell id="pPNwk52n2RvMzLBVsfBl-13" value="1: Chọn &quot;Đơn hàng&quot;" style="html=1;verticalAlign=bottom;startArrow=oval;startFill=1;endArrow=block;startSize=8;fontSize=12;" edge="1" target="pPNwk52n2RvMzLBVsfBl-14" parent="vJz7wqSFiuFJ8WQOTCKR-1">
          <mxGeometry width="60" relative="1" as="geometry">
            <mxPoint x="210" y="230" as="sourcePoint" />
            <mxPoint x="380" y="230" as="targetPoint" />
          </mxGeometry>
        </mxCell>
        <mxCell id="pPNwk52n2RvMzLBVsfBl-14" value="" style="html=1;points=[];perimeter=orthogonalPerimeter;fontSize=12;" vertex="1" parent="vJz7wqSFiuFJ8WQOTCKR-1">
          <mxGeometry x="375" y="230" width="10" height="120" as="geometry" />
        </mxCell>
        <mxCell id="pPNwk52n2RvMzLBVsfBl-15" value="2: Gửi yêu cầu lấy đơn hàng" style="html=1;verticalAlign=bottom;endArrow=block;fontSize=12;exitX=1.3;exitY=0.213;exitDx=0;exitDy=0;exitPerimeter=0;" edge="1" source="pPNwk52n2RvMzLBVsfBl-14" target="pPNwk52n2RvMzLBVsfBl-16" parent="vJz7wqSFiuFJ8WQOTCKR-1">
          <mxGeometry width="80" relative="1" as="geometry">
            <mxPoint x="540" y="400" as="sourcePoint" />
            <mxPoint x="540" y="247" as="targetPoint" />
          </mxGeometry>
        </mxCell>
        <mxCell id="pPNwk52n2RvMzLBVsfBl-16" value="" style="html=1;points=[];perimeter=orthogonalPerimeter;fontSize=12;" vertex="1" parent="vJz7wqSFiuFJ8WQOTCKR-1">
          <mxGeometry x="545" y="250" width="10" height="90" as="geometry" />
        </mxCell>
        <mxCell id="pPNwk52n2RvMzLBVsfBl-17" value="3: Lấy dữ liệu" style="html=1;verticalAlign=bottom;endArrow=block;fontSize=12;exitX=1.1;exitY=0.225;exitDx=0;exitDy=0;exitPerimeter=0;" edge="1" source="pPNwk52n2RvMzLBVsfBl-16" target="pPNwk52n2RvMzLBVsfBl-18" parent="vJz7wqSFiuFJ8WQOTCKR-1">
          <mxGeometry width="80" relative="1" as="geometry">
            <mxPoint x="540" y="400" as="sourcePoint" />
            <mxPoint x="710" y="268" as="targetPoint" />
          </mxGeometry>
        </mxCell>
        <mxCell id="pPNwk52n2RvMzLBVsfBl-18" value="" style="html=1;points=[];perimeter=orthogonalPerimeter;fontSize=12;" vertex="1" parent="vJz7wqSFiuFJ8WQOTCKR-1">
          <mxGeometry x="710" y="270" width="10" height="50" as="geometry" />
        </mxCell>
        <mxCell id="pPNwk52n2RvMzLBVsfBl-19" value="4: Trả về thông tin" style="html=1;verticalAlign=bottom;endArrow=open;dashed=1;endSize=8;fontSize=12;exitX=0;exitY=0.78;exitDx=0;exitDy=0;exitPerimeter=0;" edge="1" source="pPNwk52n2RvMzLBVsfBl-18" parent="vJz7wqSFiuFJ8WQOTCKR-1">
          <mxGeometry relative="1" as="geometry">
            <mxPoint x="620" y="400" as="sourcePoint" />
            <mxPoint x="558" y="310" as="targetPoint" />
          </mxGeometry>
        </mxCell>
        <mxCell id="pPNwk52n2RvMzLBVsfBl-20" value="5: Hiển thị thông tin ra GD&lt;br&gt;Đơn hàng" style="html=1;verticalAlign=bottom;endArrow=open;dashed=1;endSize=8;fontSize=12;entryX=1;entryY=0.842;entryDx=0;entryDy=0;entryPerimeter=0;" edge="1" target="pPNwk52n2RvMzLBVsfBl-14" parent="vJz7wqSFiuFJ8WQOTCKR-1">
          <mxGeometry relative="1" as="geometry">
            <mxPoint x="540" y="330" as="sourcePoint" />
            <mxPoint x="460" y="320" as="targetPoint" />
            <Array as="points">
              <mxPoint x="470" y="330" />
            </Array>
          </mxGeometry>
        </mxCell>
        <mxCell id="pPNwk52n2RvMzLBVsfBl-21" value="sd XTT đơn hàng" style="shape=umlFrame;whiteSpace=wrap;html=1;fontSize=12;" vertex="1" parent="vJz7wqSFiuFJ8WQOTCKR-1">
          <mxGeometry x="80" y="40" width="760" height="400" as="geometry" />
        </mxCell>
      </root>
    </mxGraphModel>
  </diagram>
</mxfile>
